<svg width="347" height="219" viewBox="0 0 347 219" fill="none" xmlns="http://www.w3.org/2000/svg">
<g filter="url(#filter0_ii_3761_28424)">
<rect width="347" height="218.724" rx="12" fill="#EFF2F5"/>
<g clip-path="url(#clip0_3761_28424)">
<path d="M109.566 104.179C110.129 103.794 110.952 103.6 112.029 103.6C113.107 103.6 113.959 103.794 114.763 104.179C115.562 104.567 116.251 105.119 116.834 105.835L119.236 103.433C118.463 102.355 117.477 101.548 116.278 101.011C115.079 100.47 113.704 100.203 112.159 100.203C110.697 100.203 109.44 100.439 108.39 100.908C107.339 101.376 106.532 102.046 105.968 102.915C105.401 103.783 105.119 104.811 105.119 105.999C105.119 107.187 105.374 108.147 105.885 108.878C106.395 109.609 107.049 110.18 107.849 110.595C108.648 111.01 109.497 111.342 110.396 111.589C111.294 111.837 112.14 112.092 112.943 112.355C113.742 112.617 114.397 112.949 114.907 113.349C115.418 113.748 115.673 114.308 115.673 115.024C115.673 115.74 115.357 116.3 114.721 116.7C114.085 117.099 113.19 117.301 112.029 117.301C110.868 117.301 109.821 117.088 108.885 116.658C107.948 116.231 107.118 115.576 106.402 114.693L104 117.096C104.605 117.842 105.317 118.482 106.132 119.022C106.947 119.559 107.849 119.974 108.843 120.264C109.836 120.553 110.883 120.698 111.987 120.698C114.195 120.698 115.954 120.161 117.264 119.083C118.574 118.006 119.228 116.543 119.228 114.697C119.228 113.482 118.973 112.503 118.463 111.757C117.953 111.01 117.298 110.416 116.499 109.975C115.699 109.533 114.858 109.183 113.975 108.92C113.091 108.657 112.242 108.402 111.428 108.154C110.613 107.907 109.958 107.602 109.463 107.244C108.968 106.886 108.717 106.376 108.717 105.714C108.717 105.051 108.999 104.567 109.566 104.183" fill="black"/>
<path d="M130.061 110.389L135.083 97.8456L140.082 110.389H130.061ZM133.72 91.551L121.922 120.286H126.102L128.702 113.786H141.433L144.026 120.286H148.248L136.534 91.551H133.72Z" fill="black"/>
<path d="M167.374 100.618H163.026L158.169 107.465L153.174 100.618H148.62L155.774 110.207L148.289 120.286H152.679L157.959 112.868L163.236 120.286H167.747L160.38 110.119L167.374 100.618Z" fill="black"/>
<path d="M175.982 104.468C176.949 103.916 178.064 103.642 179.336 103.642C180.607 103.642 181.586 103.897 182.442 104.407C183.299 104.917 183.961 105.637 184.43 106.559C184.749 107.187 184.951 107.918 185.054 108.733H173.107C173.233 108.025 173.442 107.37 173.747 106.787C174.272 105.793 175.015 105.02 175.982 104.468ZM184.22 101.448C182.812 100.622 181.213 100.207 179.419 100.207C177.516 100.207 175.799 100.656 174.265 101.551C172.734 102.45 171.516 103.668 170.621 105.214C169.723 106.76 169.277 108.501 169.277 110.431C169.277 112.362 169.734 114.144 170.644 115.69C171.554 117.236 172.791 118.458 174.348 119.353C175.909 120.252 177.68 120.698 179.667 120.698C181.213 120.698 182.659 120.408 184.015 119.829C185.37 119.251 186.527 118.409 187.491 117.305L185.088 114.86C184.426 115.633 183.634 116.212 182.709 116.6C181.784 116.989 180.771 117.179 179.667 117.179C178.342 117.179 177.169 116.897 176.149 116.33C175.129 115.762 174.341 114.963 173.789 113.927C173.454 113.299 173.233 112.594 173.1 111.836H188.484C188.568 111.448 188.621 111.098 188.648 110.782C188.675 110.466 188.69 110.168 188.69 109.891C188.69 108.013 188.298 106.345 187.51 104.879C186.722 103.417 185.625 102.271 184.22 101.441" fill="black"/>
<path d="M196.582 104.179C197.145 103.794 197.967 103.6 199.045 103.6C200.065 103.6 200.975 103.794 201.778 104.179C202.578 104.567 203.267 105.119 203.849 105.835L206.252 103.433C205.479 102.355 204.493 101.548 203.29 101.011C202.09 100.47 200.716 100.203 199.17 100.203C197.709 100.203 196.452 100.439 195.405 100.908C194.354 101.376 193.547 102.046 192.984 102.915C192.417 103.783 192.135 104.811 192.135 105.999C192.135 107.187 192.39 108.147 192.9 108.878C193.41 109.609 194.065 110.18 194.865 110.595C195.664 111.01 196.513 111.342 197.412 111.589C198.306 111.837 199.155 112.092 199.959 112.355C200.758 112.617 201.413 112.949 201.923 113.349C202.433 113.748 202.688 114.308 202.688 115.024C202.688 115.74 202.368 116.3 201.736 116.7C201.101 117.099 200.206 117.301 199.045 117.301C197.884 117.301 196.837 117.088 195.9 116.658C194.964 116.231 194.134 115.576 193.418 114.693L191.016 117.096C191.621 117.842 192.333 118.482 193.148 119.022C193.962 119.559 194.865 119.974 195.858 120.264C196.852 120.553 197.899 120.698 199.003 120.698C201.211 120.698 202.97 120.161 204.28 119.083C205.589 118.006 206.244 116.543 206.244 114.697C206.244 113.482 205.989 112.503 205.479 111.757C204.969 111.01 204.314 110.416 203.514 109.975C202.715 109.533 201.873 109.183 200.99 108.92C200.107 108.657 199.258 108.402 198.443 108.154C197.629 107.907 196.974 107.602 196.475 107.244C195.98 106.886 195.729 106.376 195.729 105.714C195.729 105.051 196.011 104.567 196.578 104.183" fill="black"/>
<path d="M221.186 109.974C220.387 109.533 219.545 109.182 218.662 108.919C217.779 108.657 216.93 108.402 216.115 108.154C215.3 107.907 214.646 107.602 214.147 107.244C213.652 106.886 213.401 106.376 213.401 105.713C213.401 105.051 213.682 104.567 214.25 104.182C214.813 103.798 215.635 103.604 216.713 103.604C217.733 103.604 218.643 103.798 219.446 104.182C220.246 104.571 220.935 105.119 221.517 105.839L223.92 103.436C223.147 102.358 222.161 101.551 220.958 101.014C219.759 100.473 218.384 100.207 216.839 100.207C215.377 100.207 214.12 100.443 213.073 100.911C212.023 101.38 211.215 102.05 210.652 102.918C210.085 103.786 209.803 104.814 209.803 106.003C209.803 107.191 210.058 108.15 210.568 108.881C211.078 109.613 211.733 110.184 212.533 110.599C213.332 111.014 214.181 111.345 215.08 111.593C215.974 111.84 216.823 112.095 217.627 112.358C218.426 112.621 219.081 112.952 219.595 113.352C220.105 113.752 220.36 114.312 220.36 115.027C220.36 115.743 220.044 116.303 219.408 116.703C218.773 117.103 217.878 117.305 216.717 117.305C215.556 117.305 214.509 117.091 213.572 116.661C212.632 116.235 211.806 115.58 211.09 114.696L208.688 117.099C209.293 117.845 210.005 118.485 210.819 119.026C211.634 119.563 212.536 119.978 213.53 120.267C214.524 120.557 215.571 120.701 216.675 120.701C218.883 120.701 220.642 120.164 221.951 119.087C223.261 118.009 223.916 116.547 223.916 114.7C223.916 113.485 223.661 112.507 223.151 111.76C222.641 111.014 221.986 110.42 221.186 109.978" fill="black"/>
</g>
<path d="M227.378 81.9463C226.299 83.808 225.684 85.9712 225.684 88.277C227.989 88.277 230.147 88.8922 232.009 89.9677C232.009 87.8167 232.555 85.6413 233.707 83.6451C231.711 82.4922 229.532 81.9463 227.378 81.9463Z" fill="#D6C9AD"/>
<path d="M225.684 88.2812C225.684 95.2719 231.349 100.939 238.338 100.939C234.281 98.5921 232.009 94.3431 232.009 89.9719C230.147 88.8964 227.989 88.2812 225.684 88.2812Z" fill="#B89F6C"/>
<path d="M238.337 88.2773C237.229 90.2002 236.643 92.3838 236.639 94.604C235.527 92.6852 233.926 91.0842 232.008 89.9721C232.008 94.3433 234.28 98.5964 238.337 100.943C242.394 98.5964 244.666 94.3474 244.666 89.9721C242.748 91.0842 241.143 92.6852 240.035 94.604C240.035 92.3838 239.445 90.2043 238.337 88.2773Z" fill="#9A8252"/>
<path d="M233.706 83.6449C232.554 85.6411 232.008 87.8206 232.008 89.9675C233.926 91.0797 235.531 92.6807 236.639 94.5995C236.639 92.3792 237.229 90.1997 238.337 88.2728C237.266 86.407 235.702 84.7938 233.706 83.6409" fill="#B89F6C"/>
<path d="M238.342 79.0132C236.476 80.0846 234.859 81.649 233.711 83.6451C235.707 84.798 237.271 86.4113 238.342 88.2771C239.413 86.4113 240.977 84.798 242.977 83.6451C241.824 81.649 240.207 80.0805 238.342 79.0132Z" fill="#D6C9AD"/>
<path d="M242.971 83.6453C240.975 84.7982 239.411 86.4114 238.336 88.2772C239.444 90.2001 240.03 92.3836 240.034 94.6039C241.146 92.6851 242.747 91.0841 244.669 89.9719C244.669 87.8209 244.124 85.6455 242.971 83.6493" fill="#B89F6C"/>
<path d="M250.998 88.2812C248.693 88.2812 246.534 88.8964 244.673 89.9719C244.673 94.3431 242.4 98.5962 238.344 100.939C245.333 100.939 250.998 95.2719 250.998 88.2812Z" fill="#B89F6C"/>
<path d="M249.302 81.9463C247.151 81.9463 244.968 82.4922 242.973 83.6451C244.125 85.6413 244.671 87.8208 244.671 89.9677C246.532 88.8922 248.691 88.277 250.996 88.277C250.996 85.9712 250.377 83.808 249.302 81.9463Z" fill="#D6C9AD"/>
<g clip-path="url(#clip1_3761_28424)">
<mask id="mask0_3761_28424" style="mask-type:luminance" maskUnits="userSpaceOnUse" x="22" y="63" width="49" height="44">
<path d="M53.7921 63.1506C53.7921 63.1506 53.7469 63.1506 53.7319 63.1657H38.7292C38.7292 63.1657 38.684 63.1506 38.669 63.1506C38.6238 63.1506 38.5787 63.1506 38.5335 63.1657H29.7907C25.6526 63.1657 22.2969 66.3859 22.2969 70.3435V99.6718C22.2969 103.629 25.6526 106.85 29.7907 106.85H62.6854C66.8236 106.85 70.1792 103.629 70.1792 99.6718V70.3435C70.1642 66.3859 66.8085 63.1657 62.6703 63.1657H53.9275C53.9275 63.1657 53.8523 63.1506 53.8222 63.1506C53.8222 63.1506 53.8071 63.1506 53.7921 63.1506Z" fill="white"/>
</mask>
<g mask="url(#mask0_3761_28424)">
<path d="M70.1792 63.1506H22.2969V106.85H70.1792V63.1506Z" fill="url(#paint0_linear_3761_28424)" fill-opacity="0.55"/>
<path d="M70.1792 63.1506H22.2969V106.85H70.1792V63.1506Z" fill="url(#paint1_linear_3761_28424)" style="mix-blend-mode:overlay"/>
<path d="M70.1792 63.1506H22.2969V106.85H70.1792V63.1506Z" fill="#C1A875" style="mix-blend-mode:color"/>
</g>
<path d="M62.8851 63.015H54.0369C54.0369 63.015 53.9467 63 53.9015 63C53.8714 63 53.8564 63 53.8413 63.015H38.658C38.658 63.015 38.6129 63 38.5978 63C38.5527 63 38.5075 63 38.4624 63.015H29.6142C25.4008 63.015 22 66.2654 22 70.238V99.762C22 103.75 25.4008 106.985 29.5841 106.985H62.87C67.0534 106.985 70.4542 103.75 70.4542 99.762V70.238C70.4692 66.2654 67.0684 63.015 62.8851 63.015ZM46.2271 99.9425C43.2175 99.9425 40.6443 99.6566 38.2818 99.2804C37.4843 88.1751 37.4692 80.4706 38.2216 70.5089C40.5992 70.1176 43.1874 69.8468 46.2271 69.8468C49.2668 69.8468 51.855 70.1327 54.2476 70.5239C54.383 72.2695 54.4884 73.9398 54.5787 75.6402C54.5787 75.8057 54.7291 75.9412 54.8947 75.9412C55.0752 75.9412 55.2107 75.7907 55.1956 75.6101C55.1204 73.9549 55.015 72.3297 54.8796 70.6293C56.1737 70.855 57.4227 71.1108 58.6566 71.3516C62.1477 72.0588 65.2777 72.7962 69.8372 72.7962V80.7866L55.0903 80.0944H55.0451C54.9549 80.0944 54.8796 80.1245 54.8194 80.1847C54.7592 80.2449 54.7291 80.3352 54.7291 80.4104C54.8646 86.3543 54.699 91.8468 54.1724 99.2654C51.8099 99.6566 49.2367 99.9275 46.2271 99.9275M54.1423 99.9275C53.9918 101.929 53.8263 104.051 53.6156 106.383H38.8536C38.658 104.096 38.4774 101.959 38.327 99.9275C40.6895 100.304 43.2326 100.575 46.2271 100.575C49.2216 100.575 51.7798 100.304 54.1272 99.9275M22.617 81.4186L37.078 80.7414C37.0178 83.4651 37.0328 86.1888 37.1081 89.0178L22.617 88.3406V81.4036V81.4186ZM37.093 80.1245L22.617 80.8016V72.8112C27.1765 72.8112 30.2914 72.0588 33.7825 71.3666C35.0164 71.1108 36.2654 70.87 37.5746 70.6293C37.3187 73.9699 37.1532 77.0698 37.078 80.1245M22.617 88.9877L37.1382 89.6648C37.2285 92.6142 37.409 95.7291 37.6498 99.1751C36.3256 98.9494 35.0465 98.6936 33.7975 98.4378C30.3064 97.7305 27.1765 96.9932 22.632 96.9932V89.0027L22.617 88.9877ZM38.2818 69.8618C38.4323 67.8906 38.6279 65.829 38.8386 63.632H53.6457C53.8714 65.9042 54.052 67.9357 54.2025 69.8618C51.8249 69.4856 49.2517 69.1997 46.2421 69.1997C43.2326 69.1997 40.6594 69.4706 38.2818 69.8618ZM55.3912 80.7565L69.8523 81.4337V88.3707L55.3612 89.0479C55.4364 86.2189 55.4514 83.5404 55.3912 80.7715M55.3311 89.6648L69.8372 88.9877V96.9781C65.2777 96.9781 62.1628 97.7155 58.6566 98.4227C57.4077 98.6785 56.1286 98.9343 54.8044 99.1601C55.0602 95.6539 55.2257 92.5691 55.316 89.6498M69.8372 70.238V72.1642C65.3529 72.1642 62.4186 71.4569 58.7921 70.7196C57.513 70.4637 56.2038 70.1929 54.8345 69.9672C54.684 68.0109 54.4884 65.9494 54.2627 63.632H62.87C66.7073 63.632 69.8372 66.5964 69.8372 70.238ZM29.5841 63.632H38.1915C37.9808 65.8741 37.7852 67.9658 37.6347 69.9672C36.2654 70.2079 34.9562 70.4637 33.6621 70.7196C30.0356 71.4569 27.1012 72.1491 22.617 72.1642V70.238C22.617 66.5964 25.7469 63.632 29.5841 63.632ZM22.617 99.777V97.6101C27.1012 97.6101 30.0356 98.3174 33.6621 99.0547C34.9713 99.3256 36.2955 99.5814 37.6799 99.8222C37.8304 101.884 38.0109 104.051 38.2066 106.383H29.5691C25.7319 106.383 22.6019 103.419 22.6019 99.777M62.8851 106.368H54.2476C54.4583 104.005 54.6238 101.839 54.7743 99.8071C56.1587 99.5663 57.4829 99.3105 58.7921 99.0397C62.4186 98.3023 65.3529 97.6101 69.8372 97.5951V99.762C69.8372 103.404 66.7073 106.368 62.87 106.368" fill="#252626"/>
</g>
<rect x="251" y="130" width="68" height="68" rx="6" fill="url(#paint2_linear_3761_28424)"/>
</g>
<defs>
<filter id="filter0_ii_3761_28424" x="-0.5" y="-0.5" width="348.34" height="219.894" filterUnits="userSpaceOnUse" color-interpolation-filters="sRGB">
<feFlood flood-opacity="0" result="BackgroundImageFix"/>
<feBlend mode="normal" in="SourceGraphic" in2="BackgroundImageFix" result="shape"/>
<feColorMatrix in="SourceAlpha" type="matrix" values="0 0 0 0 0 0 0 0 0 0 0 0 0 0 0 0 0 0 127 0" result="hardAlpha"/>
<feOffset dx="0.84" dy="0.67"/>
<feGaussianBlur stdDeviation="1"/>
<feComposite in2="hardAlpha" operator="arithmetic" k2="-1" k3="1"/>
<feColorMatrix type="matrix" values="0 0 0 0 1 0 0 0 0 1 0 0 0 0 1 0 0 0 0.6 0"/>
<feBlend mode="normal" in2="shape" result="effect1_innerShadow_3761_28424"/>
<feColorMatrix in="SourceAlpha" type="matrix" values="0 0 0 0 0 0 0 0 0 0 0 0 0 0 0 0 0 0 127 0" result="hardAlpha"/>
<feOffset dx="-0.6" dy="-0.6"/>
<feGaussianBlur stdDeviation="0.25"/>
<feComposite in2="hardAlpha" operator="arithmetic" k2="-1" k3="1"/>
<feColorMatrix type="matrix" values="0 0 0 0 0 0 0 0 0 0 0 0 0 0 0 0 0 0 0.25 0"/>
<feBlend mode="normal" in2="effect1_innerShadow_3761_28424" result="effect2_innerShadow_3761_28424"/>
</filter>
<linearGradient id="paint0_linear_3761_28424" x1="27.7049" y1="79.8847" x2="71.9" y2="68.5407" gradientUnits="userSpaceOnUse">
<stop stop-color="#576265"/>
<stop offset="0.172016" stop-color="#9EA1A1"/>
<stop offset="0.45741" stop-color="#848B8A"/>
<stop offset="0.553567" stop-color="#576265"/>
<stop offset="0.823421" stop-color="#576265"/>
<stop offset="0.925155" stop-color="#757A7B"/>
<stop offset="1" stop-color="#576265"/>
</linearGradient>
<linearGradient id="paint1_linear_3761_28424" x1="44.1644" y1="74.4031" x2="36.036" y2="51.1594" gradientUnits="userSpaceOnUse">
<stop stop-color="white" stop-opacity="0"/>
<stop offset="1" stop-color="white"/>
</linearGradient>
<linearGradient id="paint2_linear_3761_28424" x1="285" y1="130" x2="285" y2="198" gradientUnits="userSpaceOnUse">
<stop stop-color="#67646B"/>
<stop offset="1" stop-color="#303130"/>
</linearGradient>
<clipPath id="clip0_3761_28424">
<rect width="142.656" height="42.322" fill="white" transform="translate(104 78.3794)"/>
</clipPath>
<clipPath id="clip1_3761_28424">
<rect width="48.4692" height="44" fill="white" transform="translate(22 63)"/>
</clipPath>
</defs>
</svg>
