<svg width="360" height="117" viewBox="0 0 360 117" fill="none" xmlns="http://www.w3.org/2000/svg">
<g clip-path="url(#clip0_3761_27684)">
<rect width="360" height="117" rx="12" fill="white"/>
<g filter="url(#filter0_dii_3761_27684)">
<g clip-path="url(#clip1_3761_27684)">
<rect width="161.141" height="101.572" rx="5.57261" transform="matrix(0.866025 -0.5 0.866025 0.5 181.496 122.414)" fill="#EFF2F5"/>
<g clip-path="url(#clip2_3761_27684)">
<path d="M278.193 117.846L275.168 113.768L282.223 115.52L278.193 117.846ZM272.089 112.623L278.9 122.034L280.581 121.064L279.013 118.95L284.133 115.994L287.79 116.902L289.488 115.921L273.22 111.969L272.089 112.623Z" fill="black"/>
<path d="M289.269 106.914L287.521 107.924L288.321 110.641L283.558 110.211L281.727 111.269L288.46 111.834L289.504 115.912L291.269 114.893L290.409 111.945L295.515 112.442L297.329 111.394L290.277 110.744L289.269 106.914Z" fill="black"/>
<path d="M294.281 105.809C294.448 105.456 294.786 105.134 295.298 104.838C295.809 104.543 296.305 104.375 296.855 104.295C297.405 104.214 297.96 104.228 298.519 104.333C298.901 104.404 299.276 104.527 299.645 104.693L294.84 107.467C294.606 107.273 294.427 107.072 294.315 106.866C294.127 106.514 294.114 106.162 294.281 105.809ZM296.38 103.195C295.481 103.33 294.671 103.605 293.95 104.021C293.184 104.463 292.675 104.966 292.417 105.53C292.163 106.094 292.163 106.66 292.425 107.227C292.686 107.794 293.207 108.302 293.983 108.75C294.759 109.199 295.66 109.506 296.648 109.654C297.635 109.802 298.625 109.798 299.611 109.644C300.6 109.491 301.491 109.183 302.29 108.722C302.912 108.363 303.377 107.96 303.69 107.511C304.002 107.061 304.129 106.597 304.072 106.117L302.123 106.107C302.167 106.441 302.082 106.759 301.866 107.064C301.65 107.369 301.319 107.648 300.875 107.905C300.342 108.212 299.757 108.419 299.119 108.524C298.48 108.629 297.842 108.627 297.203 108.514C296.816 108.446 296.444 108.334 296.085 108.189L302.273 104.617C302.15 104.507 302.031 104.413 301.914 104.334C301.798 104.254 301.684 104.182 301.573 104.117C300.818 103.681 299.989 103.385 299.083 103.228C298.178 103.071 297.276 103.06 296.377 103.193" fill="black"/>
<path d="M302.447 100.959C302.519 100.739 302.771 100.503 303.205 100.253C303.615 100.016 304.059 99.8494 304.537 99.7522C305.014 99.6568 305.514 99.625 306.036 99.6559L306.036 98.5402C305.291 98.4695 304.57 98.511 303.87 98.6656C303.171 98.8185 302.511 99.0757 301.889 99.4346C301.301 99.7741 300.891 100.121 300.658 100.472C300.424 100.825 300.369 101.168 300.491 101.501C300.612 101.834 300.913 102.138 301.39 102.414C301.868 102.69 302.357 102.853 302.856 102.905C303.355 102.956 303.848 102.937 304.337 102.847C304.825 102.758 305.3 102.638 305.761 102.487C306.22 102.336 306.664 102.199 307.093 102.073C307.52 101.948 307.917 101.873 308.283 101.848C308.649 101.822 308.976 101.893 309.264 102.059C309.552 102.225 309.649 102.43 309.555 102.669C309.46 102.91 309.182 103.164 308.715 103.434C308.248 103.703 307.741 103.897 307.191 104.015C306.643 104.133 306.046 104.174 305.403 104.135L305.403 105.25C305.947 105.283 306.49 105.266 307.035 105.203C307.579 105.138 308.109 105.025 308.625 104.862C309.141 104.698 309.62 104.489 310.064 104.232C310.952 103.72 311.443 103.186 311.537 102.632C311.63 102.078 311.305 101.586 310.562 101.157C310.074 100.875 309.578 100.707 309.072 100.653C308.567 100.598 308.065 100.612 307.566 100.695C307.067 100.778 306.587 100.892 306.126 101.036C305.665 101.18 305.221 101.318 304.794 101.45C304.367 101.581 303.981 101.663 303.637 101.695C303.294 101.727 302.987 101.667 302.721 101.513C302.454 101.359 302.373 101.182 302.447 100.961" fill="black"/>
<path d="M314.674 96.5912C314.174 96.6742 313.695 96.7883 313.234 96.9323C312.773 97.0764 312.329 97.2143 311.902 97.346C311.475 97.4777 311.089 97.559 310.744 97.5917C310.401 97.6235 310.095 97.5634 309.829 97.4095C309.562 97.2557 309.481 97.078 309.555 96.8569C309.626 96.6368 309.879 96.4008 310.312 96.1506C310.723 95.9137 311.167 95.7475 311.644 95.6503C312.122 95.5549 312.62 95.5222 313.144 95.554L313.143 94.4383C312.399 94.3676 311.678 94.4091 310.978 94.5637C310.278 94.7166 309.618 94.9738 308.997 95.3327C308.409 95.6722 307.999 96.0187 307.766 96.3706C307.532 96.7233 307.477 97.0663 307.599 97.3987C307.72 97.7321 308.02 98.0362 308.498 98.3121C308.976 98.5879 309.465 98.7515 309.964 98.8028C310.463 98.8541 310.956 98.8347 311.444 98.7455C311.933 98.6562 312.408 98.536 312.869 98.3849C313.328 98.2346 313.772 98.0967 314.201 97.9712C314.628 97.8466 315.024 97.7714 315.392 97.7449C315.758 97.7193 316.086 97.7901 316.374 97.9563C316.661 98.1225 316.759 98.3259 316.665 98.5663C316.57 98.8068 316.291 99.0614 315.824 99.331C315.357 99.6006 314.85 99.7942 314.301 99.9118C313.751 100.031 313.155 100.071 312.512 100.032L312.512 101.148C313.056 101.18 313.599 101.164 314.145 101.1C314.688 101.035 315.218 100.922 315.734 100.759C316.25 100.595 316.729 100.386 317.173 100.129C318.061 99.6167 318.553 99.0837 318.646 98.5293C318.739 97.975 318.415 97.4835 317.672 97.0546C317.183 96.7726 316.687 96.6046 316.182 96.5497C315.676 96.4949 315.174 96.509 314.675 96.5921" fill="black"/>
</g>
<path d="M305.892 88.6464C306.207 89.3293 306.83 89.9744 307.757 90.5097C308.684 89.9745 309.8 89.6161 310.981 89.4336C310.116 88.9342 309.46 88.3024 309.121 87.5712C307.855 87.7669 306.759 88.1461 305.892 88.6464Z" fill="#D6C9AD"/>
<path d="M307.758 90.5107C310.569 92.1339 315.127 92.1342 317.937 90.5114C315.362 90.9085 312.739 90.4496 310.982 89.4346C309.8 89.6171 308.685 89.9755 307.758 90.5107Z" fill="#B89F6C"/>
<path d="M312.846 87.5717C313.174 88.2754 313.816 88.9185 314.708 89.435C313.489 89.2477 312.201 89.2476 310.982 89.4348C312.74 90.4497 315.365 90.9096 317.94 90.5125C318.628 89.0257 317.833 87.5115 316.073 86.4955C315.749 87.1992 315.747 87.9436 316.074 88.6463C315.181 88.1308 314.067 87.7618 312.846 87.5717Z" fill="#9A8252"/>
<path d="M309.122 87.5714C309.461 88.3026 310.118 88.9353 310.982 89.4338C312.201 89.2467 313.49 89.2458 314.707 89.4341C313.814 88.9186 313.175 88.2754 312.846 87.5707C311.665 87.3862 310.387 87.3748 309.121 87.5705" fill="#B89F6C"/>
<path d="M309.12 85.4199C308.801 86.1018 308.78 86.8404 309.121 87.5706C310.387 87.3749 311.665 87.3864 312.846 87.5709C312.526 86.8889 312.506 86.1512 312.847 85.4192C311.581 85.2233 310.3 85.2346 309.12 85.4199Z" fill="#D6C9AD"/>
<path d="M312.848 85.4201C312.509 86.1512 312.529 86.8889 312.847 87.5718C314.066 87.7611 315.18 88.1319 316.075 88.6465C315.75 87.9428 315.75 87.1994 316.076 86.4948C315.211 85.9953 314.116 85.617 312.85 85.4211" fill="#B89F6C"/>
<path d="M317.941 84.6325C317.014 85.1678 316.393 85.8118 316.077 86.4938C317.835 87.5087 318.631 89.0239 317.942 90.5097C320.753 88.8869 320.752 86.2557 317.941 84.6325Z" fill="#B89F6C"/>
<path d="M314.709 83.5558C313.845 84.0551 313.186 84.6888 312.847 85.4198C314.114 85.6157 315.21 85.995 316.073 86.4935C316.389 85.8116 317.01 85.1676 317.937 84.6323C317.01 84.0969 315.891 83.7384 314.709 83.5558Z" fill="#D6C9AD"/>
<rect width="31.5781" height="31.5781" rx="2.7863" transform="matrix(0.866025 -0.5 0.866025 0.5 334.723 94.3191)" fill="url(#paint0_linear_3761_27684)"/>
</g>
</g>
<g filter="url(#filter1_dii_3761_27684)">
<g clip-path="url(#clip3_3761_27684)">
<rect width="161.141" height="101.572" rx="5.57261" transform="matrix(0.866025 -0.5 0.866025 0.5 180 89.5459)" fill="#EFF2F5"/>
<g clip-path="url(#clip4_3761_27684)">
<path d="M265.962 88.2953C266.034 88.0751 266.287 87.8391 266.72 87.5889C267.153 87.3388 267.575 87.1858 268.052 87.0886C268.53 86.9932 269.029 86.9614 269.551 86.9924L269.551 85.8767C268.807 85.8059 268.086 85.8474 267.387 86.0012C266.688 86.1541 266.028 86.4113 265.406 86.7702C264.818 87.1096 264.408 87.4562 264.174 87.8089C263.939 88.1616 263.884 88.5046 264.007 88.8371C264.128 89.1704 264.428 89.4745 264.906 89.7504C265.384 90.0263 265.872 90.1898 266.372 90.2412C266.871 90.2925 267.364 90.273 267.852 90.1838C268.341 90.0945 268.815 89.9743 269.276 89.8232C269.737 89.672 270.18 89.535 270.608 89.4095C271.036 89.2849 271.432 89.2098 271.798 89.1842C272.164 89.1585 272.492 89.2293 272.78 89.3955C273.068 89.5617 273.166 89.7651 273.071 90.0056C272.976 90.246 272.697 90.5006 272.23 90.7702C271.763 91.0398 271.257 91.2334 270.707 91.351C270.159 91.4694 269.561 91.51 268.918 91.4711L268.919 92.5868C269.462 92.6195 270.006 92.6028 270.551 92.5392C271.094 92.4747 271.624 92.3615 272.14 92.198C272.656 92.0345 273.136 91.825 273.58 91.5686C274.468 91.0559 274.959 90.5229 275.052 89.9686C275.146 89.4142 274.821 88.9227 274.078 88.4938C273.59 88.2118 273.093 88.0438 272.588 87.9889C272.083 87.9341 271.58 87.9482 271.081 88.0313C270.582 88.1143 270.103 88.2283 269.642 88.3724C269.181 88.5165 268.737 88.6544 268.31 88.7861C267.883 88.9178 267.497 88.9991 267.154 89.0309C266.811 89.0627 266.505 89.0026 266.238 88.8487C265.972 88.6949 265.89 88.5172 265.964 88.2961" fill="black"/>
<path d="M276.705 84.978L273.68 80.8995L280.735 82.6514L276.705 84.978ZM270.6 79.7544L277.412 89.166L279.093 88.1953L277.525 86.0823L282.645 83.1263L286.301 84.0336L287.999 83.0532L271.732 79.1012L270.6 79.7544Z" fill="black"/>
<path d="M287.777 74.0457L286.028 75.0552L286.828 77.7729L282.066 77.3429L280.235 78.4001L286.968 78.9655L288.012 83.0439L289.777 82.0246L288.917 79.0762L294.023 79.5734L295.837 78.5258L288.785 77.8756L287.777 74.0457Z" fill="black"/>
<path d="M292.789 72.9405C292.956 72.5878 293.294 72.2651 293.805 71.9699C294.317 71.6746 294.813 71.5067 295.363 71.4263C295.912 71.3459 296.468 71.3591 297.027 71.4644C297.408 71.536 297.784 71.6589 298.153 71.8243L293.348 74.5982C293.114 74.4046 292.935 74.2039 292.823 73.9979C292.634 73.6451 292.622 73.2933 292.789 72.9405ZM294.888 70.3264C293.989 70.4616 293.179 70.7365 292.458 71.1529C291.692 71.5949 291.182 72.0979 290.925 72.6619C290.671 73.2259 290.671 73.7918 290.933 74.3585C291.194 74.9261 291.714 75.4336 292.491 75.8818C293.267 76.3301 294.168 76.6379 295.155 76.7856C296.143 76.9333 297.132 76.9298 298.118 76.776C299.108 76.6223 299.999 76.3147 300.798 75.8532C301.42 75.4943 301.885 75.0912 302.197 74.6421C302.51 74.193 302.637 73.7289 302.58 73.2488L300.631 73.239C300.675 73.5723 300.589 73.8906 300.374 74.1955C300.158 74.5005 299.827 74.7799 299.383 75.0362C298.85 75.3439 298.265 75.5507 297.627 75.6559C296.988 75.761 296.35 75.7583 295.711 75.646C295.324 75.5779 294.952 75.4656 294.593 75.3206L300.78 71.7484C300.658 71.6388 300.538 71.5451 300.422 71.4655C300.306 71.3859 300.192 71.3134 300.08 71.2489C299.325 70.813 298.497 70.5168 297.59 70.3593C296.685 70.2028 295.783 70.1912 294.885 70.3247" fill="black"/>
<path d="M300.958 68.0907C301.03 67.8705 301.283 67.6345 301.716 67.3843C302.127 67.1474 302.571 66.9813 303.048 66.884C303.526 66.7886 304.025 66.7568 304.547 66.7878L304.547 65.6721C303.803 65.6013 303.082 65.6428 302.382 65.7975C301.682 65.9504 301.022 66.2076 300.401 66.5665C299.813 66.9059 299.402 67.2525 299.17 67.6043C298.936 67.957 298.88 68.3001 299.003 68.6325C299.124 68.9658 299.424 69.2699 299.902 69.5458C300.38 69.8217 300.868 69.9853 301.368 70.0366C301.867 70.0879 302.36 70.0685 302.848 69.9792C303.337 69.8899 303.812 69.7697 304.272 69.6186C304.732 69.4683 305.176 69.3304 305.605 69.2049C306.032 69.0803 306.428 69.0052 306.794 68.9796C307.16 68.954 307.488 69.0247 307.776 69.1909C308.064 69.3572 308.16 69.5614 308.067 69.801C307.972 70.0414 307.693 70.296 307.226 70.5656C306.759 70.8353 306.253 71.0288 305.703 71.1464C305.155 71.2648 304.558 71.3054 303.914 71.2665L303.915 72.3822C304.458 72.415 305.002 72.3982 305.547 72.3346C306.091 72.2701 306.62 72.1569 307.136 71.9934C307.652 71.8299 308.132 71.6204 308.576 71.3641C309.464 70.8513 309.955 70.3183 310.048 69.764C310.142 69.2097 309.817 68.7181 309.074 68.2892C308.586 68.0072 308.089 67.8392 307.584 67.7843C307.079 67.7295 306.577 67.7436 306.077 67.8267C305.578 67.9097 305.099 68.0238 304.638 68.1678C304.177 68.3119 303.733 68.4498 303.306 68.5815C302.879 68.7132 302.493 68.7945 302.148 68.8272C301.805 68.859 301.499 68.7989 301.233 68.645C300.966 68.4912 300.885 68.3135 300.958 68.0924" fill="black"/>
<path d="M313.185 63.723C312.686 63.8061 312.207 63.9201 311.746 64.0642C311.285 64.2082 310.841 64.3461 310.414 64.4778C309.987 64.6095 309.601 64.6908 309.256 64.7235C308.913 64.7553 308.607 64.6952 308.34 64.5413C308.074 64.3875 307.993 64.2098 308.066 63.9888C308.138 63.7686 308.391 63.5326 308.824 63.2824C309.234 63.0455 309.678 62.8794 310.156 62.7821C310.634 62.6867 311.132 62.654 311.655 62.6859L311.655 61.5702C310.911 61.4994 310.19 61.5409 309.49 61.6956C308.79 61.8485 308.13 62.1057 307.509 62.4646C306.921 62.804 306.51 63.1506 306.278 63.5024C306.043 63.8551 305.988 64.1982 306.111 64.5306C306.232 64.8639 306.532 65.168 307.01 65.4439C307.488 65.7198 307.976 65.8834 308.475 65.9347C308.975 65.986 309.468 65.9666 309.956 65.8773C310.445 65.788 310.919 65.6678 311.38 65.5167C311.84 65.3664 312.284 65.2285 312.712 65.103C313.14 64.9784 313.536 64.9033 313.904 64.8768C314.27 64.8512 314.597 64.9219 314.885 65.0881C315.173 65.2544 315.271 65.4577 315.176 65.6982C315.081 65.9386 314.803 66.1932 314.336 66.4629C313.869 66.7325 313.362 66.926 312.812 67.0436C312.263 67.1629 311.667 67.2027 311.024 67.1637L311.024 68.2794C311.568 68.3122 312.111 68.2954 312.656 68.2318C313.2 68.1673 313.73 68.0542 314.246 67.8906C314.762 67.7271 315.241 67.5176 315.685 67.2613C316.573 66.7486 317.064 66.2155 317.158 65.6612C317.251 65.1069 316.926 64.6153 316.184 64.1865C315.695 63.9044 315.199 63.7364 314.694 63.6816C314.188 63.6267 313.686 63.6408 313.187 63.7239" fill="black"/>
</g>
<path d="M304.404 55.7782C304.719 56.4611 305.341 57.1062 306.269 57.6416C307.196 57.1063 308.311 56.7479 309.492 56.5655C308.627 56.066 307.972 55.4342 307.633 54.7031C306.366 54.8988 305.271 55.278 304.404 55.7782Z" fill="#D6C9AD"/>
<path d="M306.27 57.6426C309.081 59.2658 313.638 59.2661 316.449 57.6433C313.874 58.0403 311.251 57.5814 309.493 56.5665C308.312 56.7489 307.197 57.1073 306.27 57.6426Z" fill="#B89F6C"/>
<path d="M311.358 54.7035C311.686 55.4072 312.328 56.0504 313.219 56.5668C312 56.3795 310.713 56.3794 309.494 56.5666C311.252 57.5816 313.876 58.0414 316.452 57.6443C317.139 56.1576 316.345 54.6433 314.585 53.6274C314.261 54.331 314.259 55.0754 314.585 55.7781C313.692 55.2626 312.578 54.8937 311.358 54.7035Z" fill="#9A8252"/>
<path d="M307.634 54.7033C307.973 55.4344 308.63 56.0672 309.494 56.5657C310.712 56.3785 312.002 56.3776 313.219 56.5659C312.326 56.0504 311.687 55.4072 311.357 54.7026C310.176 54.5181 308.899 54.5066 307.632 54.7023" fill="#B89F6C"/>
<path d="M307.632 52.5517C307.313 53.2336 307.291 53.9723 307.632 54.7025C308.899 54.5068 310.176 54.5182 311.358 54.7027C311.038 54.0208 311.018 53.283 311.359 52.551C310.092 52.3551 308.811 52.3664 307.632 52.5517Z" fill="#D6C9AD"/>
<path d="M311.36 52.552C311.021 53.2831 311.041 54.0208 311.359 54.7037C312.578 54.8929 313.692 55.2637 314.586 55.7783C314.262 55.0746 314.262 54.3312 314.588 53.6266C313.722 53.1272 312.628 52.7488 311.362 52.5529" fill="#B89F6C"/>
<path d="M316.452 51.7644C315.525 52.2996 314.905 52.9437 314.589 53.6256C316.347 54.6405 317.143 56.1558 316.454 57.6416C319.264 56.0188 319.264 53.3876 316.452 51.7644Z" fill="#B89F6C"/>
<path d="M313.221 50.6876C312.356 51.1869 311.698 51.8206 311.359 52.5517C312.625 52.7475 313.721 53.1269 314.585 53.6254C314.901 52.9435 315.522 52.2994 316.449 51.7642C315.521 51.2288 314.402 50.8702 313.221 50.6876Z" fill="#D6C9AD"/>
<g clip-path="url(#clip5_3761_27684)">
<mask id="mask0_3761_27684" style="mask-type:luminance" maskUnits="userSpaceOnUse" x="216" y="88" width="34" height="21">
<path d="M227.03 91.7188C227.03 91.7188 227.012 91.7293 227.012 91.7363L220.978 95.2198C220.978 95.2198 220.954 95.2268 220.948 95.2303C220.929 95.2408 220.911 95.2512 220.899 95.2652L217.383 97.2952C215.719 98.2561 215.664 99.7829 217.256 100.702L229.051 107.512C230.643 108.431 233.287 108.399 234.951 107.438L248.181 99.8004C249.845 98.8396 249.899 97.3127 248.308 96.3938L236.513 89.584C234.915 88.6685 232.27 88.7 230.606 89.6608L227.09 91.6909C227.09 91.6909 227.054 91.7048 227.042 91.7118C227.042 91.7118 227.036 91.7153 227.03 91.7188Z" fill="white"/>
</mask>
<g mask="url(#mask0_3761_27684)">
<path d="M233.62 87.9138L214.363 99.0317L231.938 109.178L251.194 98.0604L233.62 87.9138Z" fill="url(#paint1_linear_3761_27684)" fill-opacity="0.55"/>
<path d="M233.62 87.9138L214.363 99.0317L231.938 109.178L251.194 98.0604L233.62 87.9138Z" fill="url(#paint2_linear_3761_27684)" style="mix-blend-mode:overlay"/>
<path d="M233.62 87.9138L214.363 99.0317L231.938 109.178L251.194 98.0604L233.62 87.9138Z" fill="#C1A875" style="mix-blend-mode:color"/>
</g>
<path d="M230.632 89.576L227.074 91.6304C227.074 91.6304 227.032 91.6479 227.013 91.6584C227.001 91.6654 226.995 91.6689 226.995 91.6759L220.889 95.2013C220.889 95.2013 220.865 95.2083 220.859 95.2118C220.841 95.2223 220.822 95.2328 220.81 95.2467L217.252 97.3012C215.557 98.2795 215.497 99.8239 217.094 100.746L228.968 107.602C230.572 108.527 233.241 108.489 234.923 107.518L248.31 99.7889C249.992 98.8176 250.059 97.2767 248.455 96.3508L236.581 89.4956C234.99 88.5697 232.315 88.6046 230.632 89.576ZM238.784 102.018C237.574 102.717 236.424 103.248 235.322 103.709C230.536 101.316 227.431 99.5304 223.727 97.0426C224.526 96.3998 225.458 95.7359 226.681 95.0301C227.903 94.3243 229.059 93.7897 230.178 93.325C230.935 93.6989 231.649 94.0623 232.369 94.4361C232.436 94.4746 232.551 94.4711 232.617 94.4326C232.69 94.3907 232.684 94.3243 232.605 94.2859C231.909 93.919 231.213 93.5661 230.475 93.2027C231.086 92.9547 231.691 92.7241 232.284 92.4935C233.973 91.8471 235.528 91.2915 237.362 90.2328L240.575 92.0882L234.366 95.3516L234.348 95.362C234.312 95.383 234.294 95.4075 234.294 95.4354C234.294 95.4634 234.318 95.4913 234.348 95.5088C236.793 96.8575 238.935 98.1712 241.707 100.016C240.914 100.655 239.988 101.316 238.778 102.015M241.961 100.177C242.706 100.676 243.492 101.207 244.346 101.798L238.409 105.226C237.41 104.74 236.478 104.286 235.601 103.849C236.702 103.388 237.834 102.86 239.038 102.165C240.243 101.47 241.162 100.813 241.955 100.18M221.839 103.199L227.383 99.6841C228.454 100.331 229.555 100.959 230.723 101.599L224.623 104.806L221.833 103.196L221.839 103.199ZM227.14 99.5374L221.591 103.056L218.377 101.201C220.211 100.142 221.161 99.2439 222.287 98.2725C222.68 97.9266 223.086 97.5807 223.515 97.2208C224.756 98.0559 225.936 98.8141 227.134 99.5409M224.883 104.957L230.995 101.742C232.218 102.406 233.543 103.087 235.026 103.831C234.403 104.087 233.785 104.324 233.18 104.555C231.492 105.201 229.936 105.757 228.109 106.812L224.895 104.957L224.883 104.957ZM223.491 96.8784C222.759 96.3858 222.009 95.8617 221.21 95.3026L227.165 91.8645C228.169 92.3397 229.059 92.7695 229.894 93.1818C228.787 93.6465 227.637 94.1776 226.426 94.8764C225.216 95.5752 224.29 96.2355 223.491 96.8784ZM234.754 95.4354L240.842 92.2349L243.632 93.8456L238.076 97.3676C236.969 96.6932 235.897 96.0678 234.76 95.4389M238.312 97.5178L243.874 93.9924L247.087 95.8477C245.253 96.9064 244.297 97.8008 243.172 98.7792C242.772 99.1286 242.361 99.485 241.919 99.8448C240.612 98.9713 239.438 98.2166 238.3 97.5178M236.333 89.6389L237.108 90.0861C235.304 91.1273 233.84 91.6444 232.085 92.3153C231.467 92.5529 230.832 92.7939 230.191 93.0595C229.343 92.6402 228.436 92.207 227.413 91.7213L230.874 89.7227C232.418 88.8318 234.869 88.7933 236.333 89.6389ZM217.488 97.4514L220.949 95.4529C221.766 96.0224 222.529 96.5535 223.273 97.0531C222.819 97.427 222.396 97.7904 221.978 98.1502C220.816 99.1635 219.915 100.006 218.117 101.05L217.343 100.603C215.878 99.7575 215.945 98.3424 217.488 97.4514ZM229.222 107.462L228.351 106.959C230.154 105.917 231.619 105.4 233.374 104.729C234.009 104.488 234.645 104.24 235.298 103.975C236.188 104.418 237.132 104.88 238.149 105.376L234.675 107.381C233.132 108.272 230.681 108.311 229.216 107.465M248.068 99.6422L244.594 101.648C243.728 101.05 242.923 100.509 242.167 100.002C242.627 99.6247 243.057 99.2578 243.474 98.891C244.636 97.8777 245.538 97.0357 247.335 95.991L248.207 96.4941C249.671 97.3396 249.605 98.7547 248.061 99.6457" fill="#252626"/>
</g>
<rect width="31.5781" height="31.5781" rx="2.7863" transform="matrix(0.866025 -0.5 0.866025 0.5 333.227 61.4507)" fill="url(#paint3_linear_3761_27684)"/>
</g>
</g>
<g filter="url(#filter2_dii_3761_27684)">
<g clip-path="url(#clip6_3761_27684)">
<rect width="161.141" height="101.572" rx="5.57261" transform="matrix(0.866025 -0.5 0.866025 0.5 180 51.5706)" fill="#EFF2F5"/>
<g clip-path="url(#clip7_3761_27684)">
<path d="M265.962 50.3199C266.034 50.0998 266.287 49.8638 266.72 49.6136C267.153 49.3634 267.575 49.2105 268.052 49.1133C268.53 49.0178 269.029 48.986 269.551 49.017L269.551 47.9013C268.807 47.8305 268.086 47.872 267.387 48.0258C266.688 48.1787 266.028 48.4359 265.406 48.7948C264.818 49.1343 264.408 49.4808 264.174 49.8336C263.939 50.1863 263.884 50.5293 264.007 50.8617C264.128 51.195 264.428 51.4992 264.906 51.775C265.384 52.0509 265.872 52.2145 266.372 52.2658C266.871 52.3171 267.364 52.2977 267.852 52.2084C268.341 52.1192 268.815 51.999 269.276 51.8478C269.737 51.6967 270.18 51.5597 270.608 51.4342C271.036 51.3095 271.432 51.2344 271.798 51.2088C272.164 51.1832 272.492 51.2539 272.78 51.4202C273.068 51.5864 273.166 51.7897 273.071 52.0302C272.976 52.2707 272.697 52.5253 272.23 52.7949C271.763 53.0645 271.257 53.2581 270.707 53.3756C270.159 53.4941 269.561 53.5347 268.918 53.4957L268.919 54.6115C269.462 54.6442 270.006 54.6274 270.551 54.5638C271.094 54.4993 271.624 54.3862 272.14 54.2227C272.656 54.0592 273.136 53.8497 273.58 53.5933C274.468 53.0806 274.959 52.5475 275.052 51.9932C275.146 51.4389 274.821 50.9473 274.078 50.5185C273.59 50.2364 273.093 50.0684 272.588 50.0136C272.083 49.9587 271.58 49.9729 271.081 50.0559C270.582 50.139 270.103 50.253 269.642 50.3971C269.181 50.5412 268.737 50.679 268.31 50.8107C267.883 50.9424 267.497 51.0238 267.154 51.0556C266.811 51.0874 266.505 51.0272 266.238 50.8734C265.972 50.7195 265.89 50.5418 265.964 50.3208" fill="black"/>
<path d="M276.705 47.0027L273.68 42.9242L280.735 44.676L276.705 47.0027ZM270.6 41.7791L277.412 51.1906L279.093 50.22L277.525 48.1069L282.645 45.1509L286.301 46.0582L287.999 45.0779L271.732 41.1258L270.6 41.7791Z" fill="black"/>
<path d="M287.777 36.0703L286.028 37.0798L286.828 39.7975L282.066 39.3676L280.235 40.4248L286.968 40.9902L288.012 45.0685L289.777 44.0493L288.917 41.1008L294.023 41.598L295.837 40.5505L288.785 39.9002L287.777 36.0703Z" fill="black"/>
<path d="M292.789 34.9652C292.956 34.6124 293.294 34.2898 293.805 33.9945C294.317 33.6993 294.813 33.5313 295.363 33.4509C295.912 33.3705 296.468 33.3838 297.027 33.4891C297.408 33.5607 297.784 33.6836 298.153 33.8489L293.348 36.6229C293.114 36.4292 292.935 36.2285 292.823 36.0225C292.634 35.6698 292.622 35.3179 292.789 34.9652ZM294.888 32.3511C293.989 32.4863 293.179 32.7612 292.458 33.1775C291.692 33.6195 291.182 34.1225 290.925 34.6866C290.671 35.2506 290.671 35.8164 290.933 36.3831C291.194 36.9507 291.714 37.4582 292.491 37.9065C293.267 38.3548 294.168 38.6625 295.155 38.8102C296.143 38.9579 297.132 38.9545 298.118 38.8007C299.108 38.6469 299.999 38.3393 300.798 37.8779C301.42 37.519 301.885 37.1159 302.197 36.6668C302.51 36.2177 302.637 35.7536 302.58 35.2735L300.631 35.2636C300.675 35.5969 300.589 35.9152 300.374 36.2202C300.158 36.5252 299.827 36.8045 299.383 37.0609C298.85 37.3685 298.265 37.5754 297.627 37.6805C296.988 37.7857 296.35 37.783 295.711 37.6707C295.324 37.6026 294.952 37.4903 294.593 37.3453L300.78 33.7731C300.658 33.6635 300.538 33.5697 300.422 33.4902C300.306 33.4106 300.192 33.3381 300.08 33.2735C299.325 32.8376 298.497 32.5414 297.59 32.384C296.685 32.2274 295.783 32.2159 294.885 32.3493" fill="black"/>
<path d="M300.958 30.1153C301.03 29.8952 301.283 29.6592 301.716 29.409C302.127 29.1721 302.571 29.0059 303.048 28.9087C303.526 28.8132 304.025 28.7815 304.547 28.8124L304.547 27.6967C303.803 27.6259 303.082 27.6674 302.382 27.8221C301.682 27.975 301.022 28.2322 300.401 28.5911C299.813 28.9306 299.402 29.2771 299.17 29.629C298.936 29.9817 298.88 30.3247 299.003 30.6571C299.124 30.9904 299.424 31.2946 299.902 31.5705C300.38 31.8463 300.868 32.0099 301.368 32.0612C301.867 32.1125 302.36 32.0931 302.848 32.0039C303.337 31.9146 303.812 31.7944 304.272 31.6432C304.732 31.493 305.176 31.3551 305.605 31.2296C306.032 31.105 306.428 31.0298 306.794 31.0042C307.16 30.9786 307.488 31.0494 307.776 31.2156C308.064 31.3818 308.16 31.586 308.067 31.8256C307.972 32.0661 307.693 32.3207 307.226 32.5903C306.759 32.8599 306.253 33.0535 305.703 33.171C305.155 33.2895 304.558 33.3301 303.914 33.2912L303.915 34.4069C304.458 34.4396 305.002 34.4228 305.547 34.3592C306.091 34.2947 306.62 34.1816 307.136 34.0181C307.652 33.8546 308.132 33.6451 308.576 33.3887C309.464 32.876 309.955 32.3429 310.048 31.7886C310.142 31.2343 309.817 30.7427 309.074 30.3139C308.586 30.0319 308.089 29.8638 307.584 29.809C307.079 29.7542 306.577 29.7683 306.077 29.8513C305.578 29.9344 305.099 30.0484 304.638 30.1925C304.177 30.3366 303.733 30.4745 303.306 30.6062C302.879 30.7379 302.493 30.8192 302.148 30.8519C301.805 30.8837 301.499 30.8235 301.233 30.6697C300.966 30.5158 300.885 30.3381 300.958 30.1171" fill="black"/>
<path d="M313.185 25.7477C312.686 25.8307 312.207 25.9447 311.746 26.0888C311.285 26.2329 310.841 26.3708 310.414 26.5025C309.987 26.6342 309.601 26.7155 309.256 26.7482C308.913 26.78 308.607 26.7198 308.34 26.566C308.074 26.4122 307.993 26.2344 308.066 26.0134C308.138 25.7933 308.391 25.5573 308.824 25.3071C309.234 25.0702 309.678 24.904 310.156 24.8068C310.634 24.7113 311.132 24.6787 311.655 24.7105L311.655 23.5948C310.911 23.524 310.19 23.5655 309.49 23.7202C308.79 23.8731 308.13 24.1303 307.509 24.4892C306.921 24.8287 306.51 25.1752 306.278 25.5271C306.043 25.8798 305.988 26.2228 306.111 26.5552C306.232 26.8885 306.532 27.1927 307.01 27.4686C307.488 27.7444 307.976 27.908 308.475 27.9593C308.975 28.0106 309.468 27.9912 309.956 27.902C310.445 27.8127 310.919 27.6925 311.38 27.5413C311.84 27.3911 312.284 27.2532 312.712 27.1277C313.14 27.0031 313.536 26.9279 313.904 26.9014C314.27 26.8758 314.597 26.9466 314.885 27.1128C315.173 27.279 315.271 27.4824 315.176 27.7228C315.081 27.9633 314.803 28.2179 314.336 28.4875C313.869 28.7571 313.362 28.9507 312.812 29.0683C312.263 29.1876 311.667 29.2273 311.024 29.1884L311.024 30.3041C311.568 30.3368 312.111 30.3201 312.656 30.2564C313.2 30.1919 313.73 30.0788 314.246 29.9153C314.762 29.7518 315.241 29.5423 315.685 29.2859C316.573 28.7732 317.064 28.2402 317.158 27.6858C317.251 27.1315 316.926 26.64 316.184 26.2111C315.695 25.9291 315.199 25.7611 314.694 25.7062C314.188 25.6514 313.686 25.6655 313.187 25.7485" fill="black"/>
</g>
<path d="M304.404 17.8029C304.719 18.4858 305.341 19.1308 306.269 19.6662C307.196 19.131 308.311 18.7726 309.492 18.5901C308.627 18.0907 307.972 17.4588 307.633 16.7277C306.366 16.9234 305.271 17.3026 304.404 17.8029Z" fill="#D6C9AD"/>
<path d="M306.27 19.6672C309.081 21.2904 313.638 21.2907 316.449 19.6679C313.874 20.065 311.251 19.6061 309.493 18.5911C308.312 18.7736 307.197 19.132 306.27 19.6672Z" fill="#B89F6C"/>
<path d="M311.358 16.7281C311.686 17.4318 312.328 18.075 313.219 18.5915C312 18.4042 310.713 18.4041 309.494 18.5913C311.252 19.6062 313.876 20.066 316.452 19.669C317.139 18.1822 316.345 16.668 314.585 15.652C314.261 16.3557 314.259 17.1 314.585 17.8028C313.692 17.2873 312.578 16.9183 311.358 16.7281Z" fill="#9A8252"/>
<path d="M307.634 16.7279C307.973 17.4591 308.63 18.0918 309.494 18.5903C310.712 18.4032 312.002 18.4023 313.219 18.5906C312.326 18.0751 311.687 17.4319 311.357 16.7272C310.176 16.5427 308.899 16.5313 307.632 16.727" fill="#B89F6C"/>
<path d="M307.632 14.5764C307.313 15.2583 307.291 15.9969 307.632 16.7271C308.899 16.5314 310.176 16.5429 311.358 16.7274C311.038 16.0454 311.018 15.3077 311.359 14.5757C310.092 14.3798 308.811 14.3911 307.632 14.5764Z" fill="#D6C9AD"/>
<path d="M311.36 14.5766C311.021 15.3077 311.041 16.0454 311.359 16.7283C312.578 16.9176 313.692 17.2884 314.586 17.803C314.262 17.0993 314.262 16.3559 314.588 15.6513C313.722 15.1518 312.628 14.7734 311.362 14.5776" fill="#B89F6C"/>
<path d="M316.452 13.789C315.525 14.3243 314.905 14.9683 314.589 15.6502C316.347 16.6652 317.143 18.1804 316.454 19.6662C319.264 18.0434 319.264 15.4122 316.452 13.789Z" fill="#B89F6C"/>
<path d="M313.221 12.7123C312.356 13.2116 311.698 13.8452 311.359 14.5763C312.625 14.7722 313.721 15.1515 314.585 15.65C314.901 14.9681 315.522 14.3241 316.449 13.7888C315.521 13.2534 314.402 12.8949 313.221 12.7123Z" fill="#D6C9AD"/>
<g clip-path="url(#clip8_3761_27684)">
<mask id="mask1_3761_27684" style="mask-type:luminance" maskUnits="userSpaceOnUse" x="216" y="50" width="34" height="21">
<path d="M227.03 53.7435C227.03 53.7435 227.012 53.7539 227.012 53.7609L220.978 57.2444C220.978 57.2444 220.954 57.2514 220.948 57.2549C220.929 57.2654 220.911 57.2759 220.899 57.2899L217.383 59.3199C215.719 60.2807 215.664 61.8076 217.256 62.7265L229.051 69.5363C230.643 70.4552 233.287 70.4238 234.951 69.463L248.181 61.8251C249.845 60.8642 249.899 59.3373 248.308 58.4184L236.513 51.6086C234.915 50.6932 232.27 50.7246 230.606 51.6855L227.09 53.7155C227.09 53.7155 227.054 53.7295 227.042 53.7365C227.042 53.7365 227.036 53.74 227.03 53.7435Z" fill="white"/>
</mask>
<g mask="url(#mask1_3761_27684)">
<path d="M233.62 49.9385L214.363 61.0564L231.938 71.203L251.194 60.0851L233.62 49.9385Z" fill="url(#paint4_linear_3761_27684)" fill-opacity="0.55"/>
<path d="M233.62 49.9385L214.363 61.0564L231.938 71.203L251.194 60.0851L233.62 49.9385Z" fill="url(#paint5_linear_3761_27684)" style="mix-blend-mode:overlay"/>
<path d="M233.62 49.9385L214.363 61.0564L231.938 71.203L251.194 60.0851L233.62 49.9385Z" fill="#C1A875" style="mix-blend-mode:color"/>
</g>
<path d="M230.632 51.6006L227.074 53.6551C227.074 53.6551 227.032 53.6726 227.013 53.6831C227.001 53.69 226.995 53.6935 226.995 53.7005L220.889 57.226C220.889 57.226 220.865 57.233 220.859 57.2365C220.841 57.2469 220.822 57.2574 220.81 57.2714L217.252 59.3259C215.557 60.3042 215.497 61.8485 217.094 62.7709L228.968 69.6262C230.572 70.5521 233.241 70.5136 234.923 69.5423L248.31 61.8136C249.992 60.8423 250.059 59.3014 248.455 58.3755L236.581 51.5203C234.99 50.5944 232.315 50.6293 230.632 51.6006ZM238.784 64.0428C237.574 64.7416 236.424 65.2726 235.322 65.7339C230.536 63.3405 227.431 61.555 223.727 59.0673C224.526 58.4244 225.458 57.7606 226.681 57.0548C227.903 56.349 229.059 55.8144 230.178 55.3497C230.935 55.7236 231.649 56.0869 232.369 56.4608C232.436 56.4992 232.551 56.4957 232.617 56.4573C232.69 56.4154 232.684 56.349 232.605 56.3105C231.909 55.9437 231.213 55.5908 230.475 55.2274C231.086 54.9793 231.691 54.7487 232.284 54.5181C233.973 53.8717 235.528 53.3162 237.362 52.2575L240.575 54.1128L234.366 57.3762L234.348 57.3867C234.312 57.4077 234.294 57.4321 234.294 57.4601C234.294 57.488 234.318 57.516 234.348 57.5334C236.793 58.8821 238.935 60.1959 241.707 62.0407C240.914 62.6801 239.988 63.3405 238.778 64.0393M241.961 62.2014C242.706 62.7011 243.492 63.2322 244.346 63.8226L238.409 67.2502C237.41 66.7646 236.478 66.3104 235.601 65.8736C236.702 65.4124 237.834 64.8848 239.038 64.1895C240.243 63.4942 241.162 62.8373 241.955 62.2049M221.839 65.2237L227.383 61.7088C228.454 62.3552 229.555 62.9841 230.723 63.6235L224.623 66.831L221.833 65.2202L221.839 65.2237ZM227.14 61.562L221.591 65.0805L218.377 63.2252C220.211 62.1665 221.161 61.2685 222.287 60.2972C222.68 59.9513 223.086 59.6054 223.515 59.2455C224.756 60.0806 225.936 60.8388 227.134 61.5655M224.883 66.9812L230.995 63.7667C232.218 64.4306 233.543 65.1119 235.026 65.8561C234.403 66.1112 233.785 66.3488 233.18 66.5794C231.492 67.2258 229.936 67.7813 228.109 68.8365L224.895 66.9812L224.883 66.9812ZM223.491 58.9031C222.759 58.4104 222.009 57.8863 221.21 57.3273L227.165 53.8892C228.169 54.3644 229.059 54.7941 229.894 55.2064C228.787 55.6711 227.637 56.2022 226.426 56.901C225.216 57.5998 224.29 58.2602 223.491 58.9031ZM234.754 57.4601L240.842 54.2596L243.632 55.8703L238.076 59.3922C236.969 58.7179 235.897 58.0925 234.76 57.4636M238.312 59.5425L243.874 56.017L247.087 57.8724C245.253 58.931 244.297 59.8255 243.172 60.8038C242.772 61.1532 242.361 61.5096 241.919 61.8695C240.612 60.996 239.438 60.2413 238.3 59.5425M236.333 51.6635L237.108 52.1108C235.304 53.152 233.84 53.6691 232.085 54.3399C231.467 54.5775 230.832 54.8186 230.191 55.0842C229.343 54.6649 228.436 54.2316 227.413 53.746L230.874 51.7474C232.418 50.8564 234.869 50.818 236.333 51.6635ZM217.488 59.4761L220.949 57.4775C221.766 58.0471 222.529 58.5781 223.273 59.0778C222.819 59.4516 222.396 59.815 221.978 60.1749C220.816 61.1882 219.915 62.0302 218.117 63.0749L217.343 62.6277C215.878 61.7821 215.945 60.3671 217.488 59.4761ZM229.222 69.4864L228.351 68.9833C230.154 67.9421 231.619 67.4249 233.374 66.7541C234.009 66.513 234.645 66.2649 235.298 65.9994C236.188 66.4431 237.132 66.9043 238.149 67.4005L234.675 69.406C233.132 70.297 230.681 70.3354 229.216 69.4899M248.068 61.6668L244.594 63.6724C243.728 63.0749 242.923 62.5334 242.167 62.0267C242.627 61.6494 243.057 61.2825 243.474 60.9156C244.636 59.9024 245.538 59.0603 247.335 58.0156L248.207 58.5187C249.671 59.3643 249.605 60.7794 248.061 61.6703" fill="#252626"/>
</g>
<rect width="31.5781" height="31.5781" rx="2.7863" transform="matrix(0.866025 -0.5 0.866025 0.5 333.227 23.4753)" fill="url(#paint6_linear_3761_27684)"/>
</g>
</g>
</g>
<defs>
<filter id="filter0_dii_3761_27684" x="181.264" y="41.6116" width="228.138" height="132.016" filterUnits="userSpaceOnUse" color-interpolation-filters="sRGB">
<feFlood flood-opacity="0" result="BackgroundImageFix"/>
<feColorMatrix in="SourceAlpha" type="matrix" values="0 0 0 0 0 0 0 0 0 0 0 0 0 0 0 0 0 0 127 0" result="hardAlpha"/>
<feOffset dy="0.426864"/>
<feComposite in2="hardAlpha" operator="out"/>
<feColorMatrix type="matrix" values="0 0 0 0 1 0 0 0 0 1 0 0 0 0 1 0 0 0 1 0"/>
<feBlend mode="normal" in2="BackgroundImageFix" result="effect1_dropShadow_3761_27684"/>
<feBlend mode="normal" in="SourceGraphic" in2="effect1_dropShadow_3761_27684" result="shape"/>
<feColorMatrix in="SourceAlpha" type="matrix" values="0 0 0 0 0 0 0 0 0 0 0 0 0 0 0 0 0 0 127 0" result="hardAlpha"/>
<feOffset dx="0.390082" dy="0.311137"/>
<feGaussianBlur stdDeviation="0.464384"/>
<feComposite in2="hardAlpha" operator="arithmetic" k2="-1" k3="1"/>
<feColorMatrix type="matrix" values="0 0 0 0 1 0 0 0 0 1 0 0 0 0 1 0 0 0 0.6 0"/>
<feBlend mode="normal" in2="shape" result="effect2_innerShadow_3761_27684"/>
<feColorMatrix in="SourceAlpha" type="matrix" values="0 0 0 0 0 0 0 0 0 0 0 0 0 0 0 0 0 0 127 0" result="hardAlpha"/>
<feOffset dx="-0.27863" dy="-0.27863"/>
<feGaussianBlur stdDeviation="0.116096"/>
<feComposite in2="hardAlpha" operator="arithmetic" k2="-1" k3="1"/>
<feColorMatrix type="matrix" values="0 0 0 0 0 0 0 0 0 0 0 0 0 0 0 0 0 0 0.25 0"/>
<feBlend mode="normal" in2="effect2_innerShadow_3761_27684" result="effect3_innerShadow_3761_27684"/>
</filter>
<filter id="filter1_dii_3761_27684" x="162.925" y="7.69475" width="261.665" height="165.506" filterUnits="userSpaceOnUse" color-interpolation-filters="sRGB">
<feFlood flood-opacity="0" result="BackgroundImageFix"/>
<feColorMatrix in="SourceAlpha" type="matrix" values="0 0 0 0 0 0 0 0 0 0 0 0 0 0 0 0 0 0 127 0" result="hardAlpha"/>
<feOffset dy="15.794"/>
<feGaussianBlur stdDeviation="8.53728"/>
<feComposite in2="hardAlpha" operator="out"/>
<feColorMatrix type="matrix" values="0 0 0 0 0 0 0 0 0 0 0 0 0 0 0 0 0 0 0.17 0"/>
<feBlend mode="normal" in2="BackgroundImageFix" result="effect1_dropShadow_3761_27684"/>
<feBlend mode="normal" in="SourceGraphic" in2="effect1_dropShadow_3761_27684" result="shape"/>
<feColorMatrix in="SourceAlpha" type="matrix" values="0 0 0 0 0 0 0 0 0 0 0 0 0 0 0 0 0 0 127 0" result="hardAlpha"/>
<feOffset dx="0.390082" dy="0.311137"/>
<feGaussianBlur stdDeviation="0.464384"/>
<feComposite in2="hardAlpha" operator="arithmetic" k2="-1" k3="1"/>
<feColorMatrix type="matrix" values="0 0 0 0 1 0 0 0 0 1 0 0 0 0 1 0 0 0 0.6 0"/>
<feBlend mode="normal" in2="shape" result="effect2_innerShadow_3761_27684"/>
<feColorMatrix in="SourceAlpha" type="matrix" values="0 0 0 0 0 0 0 0 0 0 0 0 0 0 0 0 0 0 127 0" result="hardAlpha"/>
<feOffset dx="1.28059" dy="-0.27863"/>
<feGaussianBlur stdDeviation="0.116096"/>
<feComposite in2="hardAlpha" operator="arithmetic" k2="-1" k3="1"/>
<feColorMatrix type="matrix" values="0 0 0 0 1 0 0 0 0 1 0 0 0 0 1 0 0 0 0.25 0"/>
<feBlend mode="normal" in2="effect2_innerShadow_3761_27684" result="effect3_innerShadow_3761_27684"/>
</filter>
<filter id="filter2_dii_3761_27684" x="162.925" y="-30.2806" width="261.665" height="165.506" filterUnits="userSpaceOnUse" color-interpolation-filters="sRGB">
<feFlood flood-opacity="0" result="BackgroundImageFix"/>
<feColorMatrix in="SourceAlpha" type="matrix" values="0 0 0 0 0 0 0 0 0 0 0 0 0 0 0 0 0 0 127 0" result="hardAlpha"/>
<feOffset dy="15.794"/>
<feGaussianBlur stdDeviation="8.53728"/>
<feComposite in2="hardAlpha" operator="out"/>
<feColorMatrix type="matrix" values="0 0 0 0 0 0 0 0 0 0 0 0 0 0 0 0 0 0 0.17 0"/>
<feBlend mode="normal" in2="BackgroundImageFix" result="effect1_dropShadow_3761_27684"/>
<feBlend mode="normal" in="SourceGraphic" in2="effect1_dropShadow_3761_27684" result="shape"/>
<feColorMatrix in="SourceAlpha" type="matrix" values="0 0 0 0 0 0 0 0 0 0 0 0 0 0 0 0 0 0 127 0" result="hardAlpha"/>
<feOffset dx="0.390082" dy="0.311137"/>
<feGaussianBlur stdDeviation="0.464384"/>
<feComposite in2="hardAlpha" operator="arithmetic" k2="-1" k3="1"/>
<feColorMatrix type="matrix" values="0 0 0 0 1 0 0 0 0 1 0 0 0 0 1 0 0 0 0.6 0"/>
<feBlend mode="normal" in2="shape" result="effect2_innerShadow_3761_27684"/>
<feColorMatrix in="SourceAlpha" type="matrix" values="0 0 0 0 0 0 0 0 0 0 0 0 0 0 0 0 0 0 127 0" result="hardAlpha"/>
<feOffset dx="1.28059" dy="-0.27863"/>
<feGaussianBlur stdDeviation="0.116096"/>
<feComposite in2="hardAlpha" operator="arithmetic" k2="-1" k3="1"/>
<feColorMatrix type="matrix" values="0 0 0 0 1 0 0 0 0 1 0 0 0 0 1 0 0 0 0.25 0"/>
<feBlend mode="normal" in2="effect2_innerShadow_3761_27684" result="effect3_innerShadow_3761_27684"/>
</filter>
<linearGradient id="paint0_linear_3761_27684" x1="15.7891" y1="0" x2="15.7891" y2="31.5781" gradientUnits="userSpaceOnUse">
<stop stop-color="#67646B"/>
<stop offset="1" stop-color="#303130"/>
</linearGradient>
<linearGradient id="paint1_linear_3761_27684" x1="223.268" y1="101.662" x2="228.592" y2="86.0721" gradientUnits="userSpaceOnUse">
<stop stop-color="#576265"/>
<stop offset="0.172016" stop-color="#9EA1A1"/>
<stop offset="0.45741" stop-color="#848B8A"/>
<stop offset="0.553567" stop-color="#576265"/>
<stop offset="0.823421" stop-color="#576265"/>
<stop offset="0.925155" stop-color="#757A7B"/>
<stop offset="1" stop-color="#576265"/>
</linearGradient>
<linearGradient id="paint2_linear_3761_27684" x1="227.683" y1="96.567" x2="218.519" y2="88.9196" gradientUnits="userSpaceOnUse">
<stop stop-color="white" stop-opacity="0"/>
<stop offset="1" stop-color="white"/>
</linearGradient>
<linearGradient id="paint3_linear_3761_27684" x1="15.7891" y1="0" x2="15.7891" y2="31.5781" gradientUnits="userSpaceOnUse">
<stop stop-color="#67646B"/>
<stop offset="1" stop-color="#303130"/>
</linearGradient>
<linearGradient id="paint4_linear_3761_27684" x1="223.268" y1="63.6862" x2="228.592" y2="48.0968" gradientUnits="userSpaceOnUse">
<stop stop-color="#576265"/>
<stop offset="0.172016" stop-color="#9EA1A1"/>
<stop offset="0.45741" stop-color="#848B8A"/>
<stop offset="0.553567" stop-color="#576265"/>
<stop offset="0.823421" stop-color="#576265"/>
<stop offset="0.925155" stop-color="#757A7B"/>
<stop offset="1" stop-color="#576265"/>
</linearGradient>
<linearGradient id="paint5_linear_3761_27684" x1="227.683" y1="58.5917" x2="218.519" y2="50.9443" gradientUnits="userSpaceOnUse">
<stop stop-color="white" stop-opacity="0"/>
<stop offset="1" stop-color="white"/>
</linearGradient>
<linearGradient id="paint6_linear_3761_27684" x1="15.7891" y1="0" x2="15.7891" y2="31.5781" gradientUnits="userSpaceOnUse">
<stop stop-color="#67646B"/>
<stop offset="1" stop-color="#303130"/>
</linearGradient>
<clipPath id="clip0_3761_27684">
<rect width="360" height="117" rx="12" fill="white"/>
</clipPath>
<clipPath id="clip1_3761_27684">
<rect width="161.141" height="101.572" rx="5.57261" transform="matrix(0.866025 -0.5 0.866025 0.5 181.496 122.414)" fill="white"/>
</clipPath>
<clipPath id="clip2_3761_27684">
<rect width="66.2472" height="19.6537" fill="white" transform="matrix(0.866025 -0.5 0.866025 0.5 254.84 116.465)"/>
</clipPath>
<clipPath id="clip3_3761_27684">
<rect width="161.141" height="101.572" rx="5.57261" transform="matrix(0.866025 -0.5 0.866025 0.5 180 89.5459)" fill="white"/>
</clipPath>
<clipPath id="clip4_3761_27684">
<rect width="66.2472" height="19.6537" fill="white" transform="matrix(0.866025 -0.5 0.866025 0.5 253.348 83.5969)"/>
</clipPath>
<clipPath id="clip5_3761_27684">
<rect width="22.5083" height="20.4329" fill="white" transform="matrix(0.866025 -0.5 0.866025 0.5 214.184 99.0657)"/>
</clipPath>
<clipPath id="clip6_3761_27684">
<rect width="161.141" height="101.572" rx="5.57261" transform="matrix(0.866025 -0.5 0.866025 0.5 180 51.5706)" fill="white"/>
</clipPath>
<clipPath id="clip7_3761_27684">
<rect width="66.2472" height="19.6537" fill="white" transform="matrix(0.866025 -0.5 0.866025 0.5 253.348 45.6216)"/>
</clipPath>
<clipPath id="clip8_3761_27684">
<rect width="22.5083" height="20.4329" fill="white" transform="matrix(0.866025 -0.5 0.866025 0.5 214.184 61.0903)"/>
</clipPath>
</defs>
</svg>
