<svg width="54" height="47" viewBox="0 0 54 47" fill="none" xmlns="http://www.w3.org/2000/svg">
<path d="M16.9563 10.463C14.5212 14.6812 13.3678 19.2839 13.3678 23.8252C9.43377 21.5517 4.87012 20.2534 0 20.2534C0 15.3777 1.3039 10.8085 3.58294 6.87451C8.12987 6.87451 12.7381 8.02796 16.9563 10.463Z" fill="#3DB75A" fill-opacity="0.3"/>
<path d="M36.5378 10.4628C32.3197 12.8978 29.0153 16.308 26.7474 20.2476C24.4795 16.308 21.1752 12.8978 16.957 10.4628C19.3921 6.24459 22.8079 2.93469 26.7474 0.672363C30.687 2.93469 34.1028 6.24459 36.5378 10.4628Z" fill="#3DB75A" fill-opacity="0.3"/>
<path d="M26.7467 46.9996C11.9747 46.9996 0 35.0249 0 20.2529C4.87012 20.2529 9.43377 21.5513 13.3678 23.8247C13.3733 33.0635 18.171 42.0459 26.7467 46.9996Z" fill="#3DB75A" fill-opacity="0.6"/>
<path d="M40.1289 23.8244C40.1233 33.0632 35.3257 42.0456 26.75 46.9993C18.1743 42.0456 13.3767 33.0632 13.3711 23.8244C17.4277 26.1703 20.8156 29.5527 23.1615 33.6093C23.1671 28.923 24.4097 24.3092 26.75 20.2471C29.0903 24.3092 30.3329 28.923 30.3385 33.6093C32.6844 29.5527 36.0723 26.1703 40.1289 23.8244Z" fill="#3DB75A"/>
<path d="M26.75 20.2472C24.4097 24.3094 23.1671 28.9232 23.1615 33.6094C20.8156 29.5528 17.4277 26.1705 13.3711 23.8246C13.3711 19.2832 14.5245 14.6806 16.9596 10.4624C21.1778 12.8975 24.4821 16.3077 26.75 20.2472Z" fill="#3DB75A" fill-opacity="0.6"/>
<path d="M40.123 23.8246C36.0665 26.1705 32.6786 29.5528 30.3327 33.6094C30.3271 28.9232 29.0845 24.3094 26.7441 20.2472C29.012 16.3077 32.3164 12.8975 36.5345 10.4624C38.9696 14.6806 40.123 19.2832 40.123 23.8246Z" fill="#3DB75A" fill-opacity="0.6"/>
<path d="M53.4908 20.2529C53.4908 35.0249 41.5161 46.9996 26.7441 46.9996C35.3198 42.0459 40.1175 33.0635 40.123 23.8247C44.057 21.5513 48.6207 20.2529 53.4908 20.2529Z" fill="#3DB75A" fill-opacity="0.6"/>
<path d="M53.4934 20.2534C48.6233 20.2534 44.0596 21.5517 40.1256 23.8252C40.1256 19.2839 38.9722 14.6812 36.5371 10.463C40.7553 8.02796 45.3635 6.87451 49.9104 6.87451C52.1895 10.8085 53.4934 15.3777 53.4934 20.2534Z" fill="#3DB75A" fill-opacity="0.3"/>
</svg>
