<svg width="274" height="111" viewBox="0 0 274 111" fill="none" xmlns="http://www.w3.org/2000/svg">
<path d="M15.19 70.7C13.3233 70.7 11.55 70.4667 9.87 70C8.23667 69.4867 6.72 68.7867 5.32 67.9C3.92 66.9667 2.70667 65.87 1.68 64.61L5.74 60.55C6.95333 62.0433 8.35333 63.1633 9.94 63.91C11.5267 64.61 13.3 64.96 15.26 64.96C17.22 64.96 18.7367 64.6333 19.81 63.98C20.8833 63.28 21.42 62.3233 21.42 61.11C21.42 59.8967 20.9767 58.9633 20.09 58.31C19.25 57.61 18.1533 57.05 16.8 56.63C15.4467 56.1633 14 55.72 12.46 55.3C10.9667 54.8333 9.54333 54.25 8.19 53.55C6.83667 52.85 5.71667 51.8933 4.83 50.68C3.99 49.4667 3.57 47.8567 3.57 45.85C3.57 43.8433 4.06 42.1167 5.04 40.67C6.02 39.1767 7.37333 38.0333 9.1 37.24C10.8733 36.4467 12.9967 36.05 15.47 36.05C18.0833 36.05 20.3933 36.5167 22.4 37.45C24.4533 38.3367 26.1333 39.69 27.44 41.51L23.38 45.57C22.4467 44.3567 21.28 43.4233 19.88 42.77C18.5267 42.1167 16.9867 41.79 15.26 41.79C13.44 41.79 12.04 42.1167 11.06 42.77C10.1267 43.3767 9.66 44.24 9.66 45.36C9.66 46.48 10.08 47.3433 10.92 47.95C11.76 48.5567 12.8567 49.07 14.21 49.49C15.61 49.91 17.0567 50.3533 18.55 50.82C20.0433 51.24 21.4667 51.8233 22.82 52.57C24.1733 53.3167 25.27 54.32 26.11 55.58C26.9967 56.84 27.44 58.4967 27.44 60.55C27.44 63.6767 26.32 66.15 24.08 67.97C21.8867 69.79 18.9233 70.7 15.19 70.7ZM48.003 70L32.113 21.42H38.693L51.293 61.04H49.403L61.793 21.42H66.5531L78.943 61.04H77.123L89.723 21.42H96.2331L80.4131 70H75.723L63.263 30.45H65.083L52.693 70H48.003ZM112.207 70.7C109.174 70.7 106.421 69.9533 103.947 68.46C101.474 66.92 99.5139 64.8433 98.0673 62.23C96.6673 59.6167 95.9673 56.6767 95.9673 53.41C95.9673 50.1433 96.6673 47.2033 98.0673 44.59C99.5139 41.9767 101.451 39.9 103.877 38.36C106.351 36.82 109.127 36.05 112.207 36.05C114.727 36.05 116.967 36.5867 118.927 37.66C120.934 38.6867 122.544 40.1333 123.757 42C124.971 43.82 125.647 45.9433 125.787 48.37V58.38C125.647 60.76 124.971 62.8833 123.757 64.75C122.591 66.6167 121.004 68.0867 118.997 69.16C117.037 70.1867 114.774 70.7 112.207 70.7ZM113.257 64.75C116.384 64.75 118.904 63.7 120.817 61.6C122.731 59.4533 123.687 56.7233 123.687 53.41C123.687 51.1233 123.244 49.14 122.357 47.46C121.517 45.7333 120.304 44.4033 118.717 43.47C117.131 42.49 115.287 42 113.187 42C111.087 42 109.221 42.49 107.587 43.47C106.001 44.45 104.741 45.8033 103.807 47.53C102.921 49.21 102.477 51.1467 102.477 53.34C102.477 55.58 102.921 57.5633 103.807 59.29C104.741 60.97 106.024 62.3 107.657 63.28C109.291 64.26 111.157 64.75 113.257 64.75ZM123.267 70V61.04L124.457 52.92L123.267 44.87V36.75H129.637V70H123.267ZM138.809 70V20.02H145.109V70H138.809ZM154.327 70V20.02H160.627V70H154.327ZM185.245 70.7C181.931 70.7 178.945 69.9533 176.285 68.46C173.625 66.92 171.525 64.8433 169.985 62.23C168.445 59.6167 167.675 56.6533 167.675 53.34C167.675 50.0733 168.421 47.1333 169.915 44.52C171.455 41.9067 173.508 39.8533 176.075 38.36C178.688 36.82 181.605 36.05 184.825 36.05C187.905 36.05 190.611 36.75 192.945 38.15C195.325 39.55 197.168 41.4867 198.475 43.96C199.828 46.4333 200.505 49.2333 200.505 52.36C200.505 52.8267 200.481 53.34 200.435 53.9C200.388 54.4133 200.295 55.02 200.155 55.72H172.085V50.47H196.795L194.485 52.5C194.485 50.26 194.088 48.37 193.295 46.83C192.501 45.2433 191.381 44.03 189.935 43.19C188.488 42.3033 186.738 41.86 184.685 41.86C182.538 41.86 180.648 42.3267 179.015 43.26C177.381 44.1933 176.121 45.5 175.235 47.18C174.348 48.86 173.905 50.8433 173.905 53.13C173.905 55.4633 174.371 57.5167 175.305 59.29C176.238 61.0167 177.568 62.37 179.295 63.35C181.021 64.2833 183.005 64.75 185.245 64.75C187.111 64.75 188.815 64.4233 190.355 63.77C191.941 63.1167 193.295 62.1367 194.415 60.83L198.475 64.96C196.888 66.8267 194.928 68.25 192.595 69.23C190.308 70.21 187.858 70.7 185.245 70.7ZM211.527 70V22.82H217.827V70H211.527ZM203.337 42.49V36.75H226.017V42.49H203.337Z" fill="white"/>
<path d="M245.313 8.31266C243.401 11.6246 242.496 15.2384 242.496 18.8041C239.407 17.019 235.824 15.9997 232 15.9997C232 12.1715 233.024 8.58392 234.813 5.49512C238.383 5.49512 242.001 6.40076 245.313 8.31266Z" fill="white" fill-opacity="0.3"/>
<path d="M260.686 8.31297C257.375 10.2249 254.78 12.9024 252.999 15.9956C251.219 12.9024 248.624 10.2249 245.312 8.31297C247.224 5.00105 249.906 2.40225 252.999 0.625977C256.093 2.40225 258.775 5.00105 260.686 8.31297Z" fill="white" fill-opacity="0.3"/>
<path d="M253 36.9998C241.402 36.9998 232 27.5978 232 15.9995C235.824 15.9995 239.407 17.0189 242.496 18.8039C242.5 26.0578 246.267 33.1104 253 36.9998Z" fill="white" fill-opacity="0.6"/>
<path d="M263.509 18.8034C263.505 26.0573 259.738 33.1099 253.005 36.9993C246.271 33.1099 242.504 26.0573 242.5 18.8034C245.685 20.6453 248.345 23.301 250.187 26.486C250.191 22.8066 251.167 19.1841 253.005 15.9946C254.842 19.1841 255.818 22.8066 255.822 26.486C257.664 23.301 260.324 20.6453 263.509 18.8034Z" fill="white"/>
<path d="M253.005 15.9951C251.167 19.1845 250.191 22.8071 250.187 26.4865C248.345 23.3015 245.685 20.6458 242.5 18.8039C242.5 15.2382 243.406 11.6244 245.318 8.3125C248.629 10.2244 251.224 12.9019 253.005 15.9951Z" fill="white" fill-opacity="0.6"/>
<path d="M263.501 18.8039C260.316 20.6458 257.656 23.3015 255.814 26.4865C255.809 22.8071 254.834 19.1845 252.996 15.9951C254.777 12.9019 257.371 10.2244 260.683 8.3125C262.595 11.6244 263.501 15.2382 263.501 18.8039Z" fill="white" fill-opacity="0.6"/>
<path d="M273.996 15.9995C273.996 27.5978 264.594 36.9998 252.996 36.9998C259.729 33.1104 263.496 26.0578 263.501 18.8039C266.589 17.0189 270.173 15.9995 273.996 15.9995Z" fill="white" fill-opacity="0.6"/>
<path d="M274.001 15.9997C270.177 15.9997 266.594 17.019 263.505 18.8041C263.505 15.2384 262.599 11.6246 260.688 8.31266C263.999 6.40076 267.618 5.49512 271.188 5.49512C272.977 8.58392 274.001 12.1715 274.001 15.9997Z" fill="white" fill-opacity="0.3"/>
<path d="M132.751 107V105.444H136.734C137.493 105.444 138.088 105.223 138.517 104.781C138.947 104.325 139.162 103.781 139.162 103.149C139.162 102.719 139.068 102.333 138.878 101.992C138.688 101.638 138.41 101.36 138.043 101.157C137.689 100.955 137.272 100.854 136.791 100.854H132.751V99.2982H136.526C137.158 99.2982 137.658 99.1338 138.024 98.805C138.404 98.4635 138.593 97.9766 138.593 97.3443C138.593 96.712 138.397 96.2314 138.005 95.9026C137.613 95.5611 137.095 95.3904 136.45 95.3904H132.751V93.8349H136.488C137.348 93.8349 138.062 93.993 138.631 94.3091C139.213 94.6127 139.649 95.0173 139.94 95.5232C140.244 96.0291 140.396 96.5855 140.396 97.1926C140.396 97.9008 140.199 98.5205 139.807 99.0516C139.428 99.5828 138.865 100 138.119 100.304L138.271 99.7345C139.118 100.038 139.776 100.5 140.244 101.119C140.724 101.726 140.965 102.447 140.965 103.282C140.965 103.977 140.794 104.603 140.452 105.16C140.111 105.716 139.618 106.165 138.973 106.507C138.34 106.836 137.563 107 136.639 107H132.751ZM131.556 107V93.8349H133.339V107H131.556ZM146.03 107.076L142.123 97.9893H144.02L146.922 105.103H146.315L149.369 97.9893H151.266L147.055 107.076H146.03ZM143.451 110.775L146.106 105.331L147.055 107.076L145.348 110.775H143.451ZM160.726 107.19C159.689 107.19 158.804 107 158.07 106.621C157.337 106.241 156.685 105.691 156.116 104.97L157.33 103.756C157.748 104.338 158.228 104.781 158.772 105.084C159.316 105.375 159.986 105.52 160.783 105.52C161.567 105.52 162.193 105.35 162.661 105.008C163.142 104.667 163.382 104.199 163.382 103.604C163.382 103.111 163.268 102.713 163.04 102.409C162.813 102.106 162.503 101.859 162.111 101.669C161.731 101.467 161.314 101.29 160.859 101.138C160.404 100.974 159.948 100.803 159.493 100.626C159.038 100.436 158.62 100.209 158.241 99.9432C157.862 99.665 157.552 99.3045 157.311 98.8619C157.084 98.4193 156.97 97.8628 156.97 97.1926C156.97 96.4464 157.147 95.8141 157.501 95.2956C157.868 94.7644 158.361 94.3597 158.981 94.0815C159.613 93.7906 160.321 93.6452 161.105 93.6452C161.965 93.6452 162.737 93.8159 163.42 94.1574C164.103 94.4862 164.659 94.9225 165.089 95.4663L163.875 96.6804C163.483 96.2251 163.059 95.8836 162.604 95.656C162.161 95.4284 161.649 95.3145 161.068 95.3145C160.359 95.3145 159.797 95.4726 159.379 95.7888C158.962 96.0923 158.753 96.5223 158.753 97.0787C158.753 97.5214 158.867 97.8818 159.095 98.16C159.335 98.4256 159.645 98.6532 160.024 98.8429C160.404 99.0326 160.821 99.2097 161.276 99.3741C161.744 99.5259 162.206 99.6966 162.661 99.8863C163.116 100.076 163.534 100.316 163.913 100.607C164.292 100.898 164.596 101.277 164.824 101.745C165.064 102.201 165.184 102.776 165.184 103.472C165.184 104.635 164.779 105.546 163.97 106.203C163.173 106.861 162.092 107.19 160.726 107.19ZM171.327 107.19C170.43 107.19 169.62 106.987 168.899 106.583C168.178 106.165 167.609 105.603 167.192 104.894C166.775 104.186 166.566 103.383 166.566 102.485C166.566 101.6 166.768 100.803 167.173 100.095C167.59 99.3867 168.147 98.8303 168.842 98.4256C169.551 98.0083 170.341 97.7996 171.214 97.7996C172.048 97.7996 172.782 97.9893 173.414 98.3687C174.059 98.7481 174.559 99.2729 174.913 99.9432C175.279 100.613 175.463 101.372 175.463 102.22C175.463 102.346 175.457 102.485 175.444 102.637C175.431 102.776 175.406 102.94 175.368 103.13H167.761V101.707H174.457L173.831 102.258C173.831 101.65 173.724 101.138 173.509 100.721C173.294 100.291 172.99 99.9622 172.598 99.7345C172.206 99.4942 171.732 99.3741 171.176 99.3741C170.594 99.3741 170.082 99.5006 169.639 99.7535C169.196 100.006 168.855 100.361 168.615 100.816C168.374 101.271 168.254 101.809 168.254 102.428C168.254 103.061 168.381 103.617 168.634 104.098C168.887 104.566 169.247 104.932 169.715 105.198C170.183 105.451 170.72 105.577 171.327 105.577C171.833 105.577 172.295 105.489 172.712 105.312C173.142 105.135 173.509 104.869 173.812 104.515L174.913 105.634C174.483 106.14 173.952 106.526 173.319 106.791C172.7 107.057 172.036 107.19 171.327 107.19ZM177.324 107V97.9893H179.032V107H177.324ZM179.032 101.859L178.387 101.575C178.387 100.424 178.652 99.5069 179.183 98.824C179.715 98.1411 180.48 97.7996 181.479 97.7996C181.934 97.7996 182.345 97.8818 182.712 98.0462C183.079 98.198 183.42 98.4572 183.736 98.824L182.617 99.9811C182.427 99.7788 182.219 99.6334 181.991 99.5448C181.763 99.4563 181.498 99.412 181.194 99.412C180.562 99.412 180.043 99.6144 179.639 100.019C179.234 100.424 179.032 101.037 179.032 101.859ZM188.815 107.19C187.917 107.19 187.108 106.987 186.387 106.583C185.666 106.165 185.097 105.603 184.68 104.894C184.263 104.186 184.054 103.383 184.054 102.485C184.054 101.6 184.256 100.803 184.661 100.095C185.078 99.3867 185.635 98.8303 186.33 98.4256C187.038 98.0083 187.829 97.7996 188.701 97.7996C189.536 97.7996 190.27 97.9893 190.902 98.3687C191.547 98.7481 192.047 99.2729 192.401 99.9432C192.767 100.613 192.951 101.372 192.951 102.22C192.951 102.346 192.944 102.485 192.932 102.637C192.919 102.776 192.894 102.94 192.856 103.13H185.249V101.707H191.945L191.319 102.258C191.319 101.65 191.212 101.138 190.997 100.721C190.782 100.291 190.478 99.9622 190.086 99.7345C189.694 99.4942 189.22 99.3741 188.664 99.3741C188.082 99.3741 187.57 99.5006 187.127 99.7535C186.684 100.006 186.343 100.361 186.103 100.816C185.862 101.271 185.742 101.809 185.742 102.428C185.742 103.061 185.869 103.617 186.122 104.098C186.375 104.566 186.735 104.932 187.203 105.198C187.671 105.451 188.208 105.577 188.815 105.577C189.321 105.577 189.783 105.489 190.2 105.312C190.63 105.135 190.997 104.869 191.3 104.515L192.401 105.634C191.971 106.14 191.439 106.526 190.807 106.791C190.187 107.057 189.524 107.19 188.815 107.19ZM201.186 107V101.745C201.186 101.062 200.971 100.5 200.541 100.057C200.111 99.6144 199.555 99.3931 198.872 99.3931C198.417 99.3931 198.012 99.4942 197.658 99.6966C197.304 99.8989 197.025 100.177 196.823 100.531C196.621 100.885 196.52 101.29 196.52 101.745L195.818 101.347C195.818 100.664 195.969 100.057 196.273 99.5259C196.577 98.9947 197 98.5774 197.544 98.2738C198.088 97.9577 198.701 97.7996 199.384 97.7996C200.067 97.7996 200.668 97.9703 201.186 98.3118C201.717 98.6532 202.135 99.1022 202.438 99.6586C202.742 100.202 202.893 100.784 202.893 101.404V107H201.186ZM194.812 107V97.9893H196.52V107H194.812ZM205.224 107V97.9893H206.931V107H205.224ZM206.078 96.1872C205.761 96.1872 205.502 96.086 205.3 95.8836C205.098 95.6686 204.996 95.4031 204.996 95.0869C204.996 94.7834 205.098 94.5304 205.3 94.3281C205.502 94.1131 205.761 94.0056 206.078 94.0056C206.394 94.0056 206.653 94.1131 206.855 94.3281C207.058 94.5304 207.159 94.7834 207.159 95.0869C207.159 95.4031 207.058 95.6686 206.855 95.8836C206.653 96.086 206.394 96.1872 206.078 96.1872ZM210.832 107V94.2143H212.539V107H210.832ZM208.613 99.5448V97.9893H214.759V99.5448H208.613ZM219.391 107.076L215.483 97.9893H217.38L220.282 105.103H219.675L222.729 97.9893H224.626L220.415 107.076H219.391ZM216.811 110.775L219.467 105.331L220.415 107.076L218.708 110.775H216.811Z" fill="white"/>
</svg>
