<svg width="113" height="98" viewBox="0 0 113 98" fill="none" xmlns="http://www.w3.org/2000/svg">
<path d="M35.8188 20.6815C30.6749 29.5921 28.2383 39.3148 28.2383 48.9081C19.9281 44.1056 10.2877 41.363 0 41.363C0 31.0634 2.75438 21.4113 7.56867 13.1011C17.1737 13.1011 26.9082 15.5376 35.8188 20.6815Z" fill="white" fill-opacity="0.3"/>
<path d="M77.1832 20.6814C68.2726 25.8253 61.2925 33.0291 56.5018 41.3511C51.711 33.0291 44.7309 25.8253 35.8203 20.6814C40.9642 11.7709 48.1797 4.77898 56.5018 0C64.8238 4.77898 72.0393 11.7709 77.1832 20.6814Z" fill="white" fill-opacity="0.3"/>
<path d="M56.5002 97.863C25.2956 97.863 0 72.5674 0 41.3628C10.2877 41.3628 19.9281 44.1054 28.2383 48.9079C28.2501 68.424 38.3848 87.3987 56.5002 97.863Z" fill="white" fill-opacity="0.6"/>
<path d="M84.7699 48.907C84.7581 68.4231 74.6234 87.3978 56.508 97.8621C38.3926 87.3978 28.2579 68.4231 28.2461 48.907C36.8153 53.8625 43.972 61.0075 48.9275 69.5767C48.9393 59.6774 51.5642 49.9311 56.508 41.3501C61.4517 49.9311 64.0767 59.6774 64.0884 69.5767C69.044 61.0075 76.2007 53.8625 84.7699 48.907Z" fill="white"/>
<path d="M56.508 41.3503C51.5642 49.9313 48.9393 59.6776 48.9275 69.5769C43.972 61.0077 36.8153 53.8628 28.2461 48.9072C28.2461 39.314 30.6827 29.5912 35.8265 20.6807C44.7371 25.8245 51.7172 33.0283 56.508 41.3503Z" fill="white" fill-opacity="0.6"/>
<path d="M84.758 48.9072C76.1888 53.8628 69.0321 61.0077 64.0765 69.5769C64.0648 59.6776 61.4399 49.9313 56.4961 41.3503C61.2868 33.0283 68.267 25.8245 77.1775 20.6807C82.3214 29.5912 84.758 39.314 84.758 48.9072Z" fill="white" fill-opacity="0.6"/>
<path d="M112.996 41.3628C112.996 72.5674 87.7007 97.863 56.4961 97.863C74.6115 87.3987 84.7462 68.424 84.758 48.9079C93.0682 44.1054 102.709 41.3628 112.996 41.3628Z" fill="white" fill-opacity="0.6"/>
<path d="M113.002 41.363C102.715 41.363 93.0743 44.1056 84.764 48.9081C84.764 39.3148 82.3275 29.5921 77.1836 20.6815C86.0941 15.5376 95.8287 13.1011 105.434 13.1011C110.248 21.4113 113.002 31.0634 113.002 41.363Z" fill="white" fill-opacity="0.3"/>
</svg>
