<svg width="177" height="177" viewBox="0 0 177 177" fill="none" xmlns="http://www.w3.org/2000/svg">
<path d="M96.5492 141.001C95.8132 141.001 95.2246 140.412 95.2246 139.676V94.9916C95.2246 93.9024 94.783 92.8427 93.9882 92.0479C93.2228 91.2532 92.1631 90.841 91.0445 90.841C90.0143 90.841 89.0134 91.2237 88.248 91.9302L88.1009 92.0774C87.3355 92.8427 86.894 93.873 86.894 94.9916V139.588C86.894 140.324 86.3053 140.913 85.5694 140.913C84.8335 140.913 84.2447 140.324 84.2447 139.588V94.9916C84.2447 93.1665 84.9512 91.4592 86.2464 90.164L86.3642 90.0462C87.6594 88.8099 89.3078 88.1623 91.074 88.1623C92.8402 88.1623 94.577 88.8688 95.8722 90.164C97.1674 91.4592 97.8738 93.1665 97.8738 94.9916V139.676C97.8738 140.412 97.2851 141.001 96.5492 141.001ZM74.0597 138.322C73.3238 138.322 72.735 137.733 72.735 136.997V94.1085C72.735 89.222 74.6485 84.6299 78.122 81.1564C81.5955 77.6829 86.1876 75.7695 91.074 75.7695C95.9605 75.7695 100.523 77.6829 104.026 81.1564C107.5 84.6299 109.413 89.2515 109.413 94.1085V136.997C109.413 137.733 108.824 138.322 108.088 138.322C107.352 138.322 106.764 137.733 106.764 136.997V94.1085C106.764 89.9285 105.145 86.0135 102.172 83.0404C99.1985 80.0673 95.2834 78.4483 91.1034 78.4483C86.9234 78.4483 83.0084 80.0967 80.0353 83.0404C77.0622 86.0135 75.4432 89.9285 75.4432 94.1085V136.997C75.4432 137.733 74.8545 138.322 74.1186 138.322H74.0597ZM62.4617 132.582C61.7258 132.582 61.137 131.993 61.137 131.257V92.1068C61.137 84.159 64.2573 76.6526 69.9385 70.9714C75.5903 65.2902 83.1262 62.1699 91.074 62.1699C99.0219 62.1699 106.528 65.2902 112.209 70.9714C117.891 76.6526 121.011 84.159 121.011 92.1068V131.257C121.011 131.993 120.422 132.582 119.686 132.582C118.95 132.582 118.362 131.993 118.362 131.257V92.1068C118.362 84.8654 115.506 78.0362 110.355 72.8553C105.203 67.7039 98.3448 64.8486 91.1034 64.8486C83.862 64.8486 77.0328 67.7039 71.852 72.8553C66.7006 78.0067 63.8452 84.8654 63.8452 92.1068V131.257C63.8452 131.993 63.2565 132.582 62.5206 132.582H62.4617ZM50.8637 122.073C50.1278 122.073 49.5391 121.484 49.5391 120.749V90.1051C49.5391 79.0664 53.8663 68.6459 61.7258 60.7864C69.5854 52.9268 80.0059 48.5997 91.0445 48.5997C102.083 48.5997 112.504 52.9268 120.363 60.7864C128.223 68.6459 132.55 79.0664 132.55 90.1051V120.749C132.55 121.484 131.961 122.073 131.225 122.073C130.489 122.073 129.901 121.484 129.901 120.749V90.1051C129.901 79.7729 125.839 70.0294 118.479 62.6703C111.12 55.3112 101.377 51.2489 91.0445 51.2489C80.7123 51.2489 70.9688 55.3112 63.6097 62.6703C56.2506 70.0294 52.1883 79.7729 52.1883 90.1051V120.749C52.1883 121.484 51.5996 122.073 50.8637 122.073ZM142.823 89.4281C142.087 89.4281 141.499 88.8394 141.499 88.1034C141.499 74.6804 136.23 62.0521 126.692 52.4853C117.125 42.9184 104.497 37.6787 91.074 37.6787C77.651 37.6787 65.0227 42.9478 55.4558 52.4853C45.9184 62.0227 40.6493 74.6804 40.6493 88.1034C40.6493 88.8394 40.0605 89.4281 39.3246 89.4281C38.5887 89.4281 38 88.8394 38 88.1034C38 73.9739 43.534 60.6392 53.6013 50.6013C63.6686 40.5341 76.9739 35 91.1034 35C105.233 35 118.538 40.5341 128.606 50.6013C138.673 60.6686 144.207 73.9739 144.207 88.1034C144.207 88.8394 143.618 89.4281 142.882 89.4281H142.823Z" fill="#00A89E"/>
<circle cx="88.5" cy="88.5" r="85.5" stroke="#00A89E" stroke-width="6"/>
</svg>
