<svg width="178" height="208" viewBox="0 0 178 208" fill="none" xmlns="http://www.w3.org/2000/svg">
<g clip-path="url(#clip0_3774_7285)">
<path d="M53.2392 85.4056L73.4483 96.6968L74.9829 97.5545C79.1933 80.0658 84.0101 69.0794 89.5937 66.3184C91.1439 65.5516 93.0004 65.8048 94.3295 66.911C100.033 71.6596 99.8582 81.624 94.0138 96.6178C92.5516 99.6467 91.2409 102.769 90.1882 106.05L98.2398 110.549L101.52 104.678L104.038 100.171L110.553 88.5079L113.576 83.0976L119.796 71.9649L136.607 41.8752L91.6068 16.7334L53.2383 85.4061L53.2392 85.4056Z" stroke="#202124" stroke-width="0.0919954" stroke-miterlimit="10"/>
<path d="M89.7313 106.23L89.8264 105.933C90.8015 102.894 92.0568 99.7973 93.6653 96.4649C96.5626 89.0291 98.0622 82.789 98.1223 77.9173C98.1819 73.0872 96.8244 69.4822 94.087 67.2031C92.8587 66.1811 91.1617 65.9672 89.7635 66.6587C87.116 67.968 84.5443 71.3032 82.1203 76.572C79.7635 81.6941 77.4872 88.7834 75.3543 97.6431L75.2369 98.1316L52.7227 85.5524L91.4614 16.2151L137.126 41.7285L98.3869 111.067L89.7308 106.231L89.7313 106.23ZM91.7548 17.2512L53.7579 85.2589L74.7309 96.9771C76.8416 88.2959 79.0938 81.3263 81.4278 76.2539C83.9271 70.8228 86.6176 67.365 89.4255 65.9766C91.0936 65.1516 93.1143 65.4034 94.5741 66.618C97.4965 69.051 98.9464 72.8563 98.8839 77.9267C98.8224 82.8931 97.3034 89.2284 94.3696 96.7555L94.3578 96.783C92.8147 99.9795 91.5991 102.955 90.6482 105.87L98.0944 110.031L113.246 82.912L136.091 42.022L91.7558 17.2517L91.7548 17.2512Z" fill="#202124"/>
<path d="M97.3395 84.5213C97.2817 84.8001 97.2212 85.0823 97.1582 85.3672C97.2221 85.0827 97.2827 84.8006 97.3395 84.5213ZM94.3191 94.7442C94.2466 94.9392 94.1738 95.1361 94.0985 95.3335C94.1733 95.1361 94.2466 94.9402 94.3191 94.7442ZM47.3006 200.361C50.8393 190.508 56.3718 180.357 64.7226 172.535C69.9852 167.605 74.305 161.924 77.5612 155.65C82.2161 146.683 85.3577 138.33 86.9064 130.812C86.9367 130.664 86.9666 130.516 86.9959 130.368C87.012 130.287 87.0276 130.206 87.0437 130.125C87.057 130.058 87.0698 129.99 87.0825 129.922C87.0877 129.896 87.0929 129.869 87.0972 129.842C87.1152 129.749 87.1327 129.656 87.1497 129.563C87.1696 129.455 87.19 129.347 87.2089 129.24C87.2316 129.116 87.2529 128.992 87.2742 128.868C87.278 128.85 87.2804 128.833 87.2837 128.815C87.3041 128.698 87.3239 128.581 87.3429 128.465C87.349 128.429 87.3552 128.393 87.3609 128.357C87.3741 128.275 87.3874 128.194 87.4006 128.112C87.4106 128.052 87.4196 127.993 87.429 127.933C87.4427 127.844 87.457 127.754 87.4702 127.666C87.4782 127.612 87.4868 127.559 87.4943 127.505C87.5043 127.443 87.5128 127.38 87.5223 127.318C87.5365 127.22 87.5507 127.122 87.5639 127.025C87.5805 126.909 87.5961 126.792 87.6117 126.677C87.6222 126.6 87.6321 126.522 87.642 126.446C87.6515 126.378 87.66 126.309 87.6681 126.241C87.6846 126.109 87.7002 125.978 87.7163 125.848C87.7258 125.77 87.7343 125.693 87.7429 125.615C87.7717 125.365 87.7978 125.116 87.8224 124.868C87.8318 124.778 87.8404 124.688 87.8484 124.599C87.8863 124.2 87.9189 123.804 87.9464 123.412L87.9473 123.379C87.9417 122.996 87.9407 122.613 87.9431 122.229C87.9436 122.157 87.944 122.086 87.945 122.014C87.9454 121.944 87.9464 121.876 87.9469 121.806C87.9478 121.777 87.9483 121.747 87.9488 121.718C87.9502 121.603 87.953 121.487 87.9554 121.372V121.364C87.9587 121.235 87.962 121.106 87.9663 120.977C87.9663 120.961 87.9667 120.943 87.9677 120.927C87.971 120.825 87.9743 120.723 87.9781 120.621C87.9805 120.549 87.9838 120.477 87.9866 120.406C87.988 120.363 87.9895 120.32 87.9918 120.277C87.9956 120.193 87.9994 120.109 88.0037 120.024C88.0075 119.941 88.0117 119.858 88.0165 119.776C88.0174 119.751 88.0183 119.725 88.0207 119.7C88.0264 119.586 88.033 119.473 88.0401 119.36C88.0411 119.336 88.0425 119.312 88.0444 119.288C88.0491 119.212 88.0538 119.136 88.0591 119.061C88.0638 118.982 88.0695 118.903 88.0751 118.825C88.0827 118.713 88.0912 118.602 88.0998 118.491C88.1106 118.354 88.1215 118.218 88.1334 118.082C88.1334 118.078 88.1338 118.076 88.1338 118.073C88.1452 117.94 88.1575 117.807 88.1698 117.674C88.1821 117.537 88.1954 117.402 88.2096 117.266C88.2271 117.091 88.2456 116.916 88.2654 116.742C88.2711 116.687 88.2773 116.633 88.2839 116.578C88.2986 116.445 88.3142 116.312 88.3312 116.179C88.336 116.136 88.3416 116.093 88.3468 116.05C88.3582 115.96 88.37 115.87 88.3819 115.78C88.5428 114.548 88.7497 113.306 89.0005 112.076C89.0308 111.927 89.0616 111.779 89.0933 111.631C89.1113 111.546 89.1293 111.461 89.1478 111.377C89.1615 111.312 89.1761 111.248 89.1903 111.183C89.2107 111.089 89.2325 110.995 89.2542 110.9C89.2756 110.805 89.2973 110.711 89.3196 110.616C89.3413 110.522 89.3636 110.428 89.3868 110.332C89.409 110.238 89.4318 110.143 89.4554 110.048C89.5018 109.859 89.5496 109.668 89.5984 109.478C89.622 109.382 89.6467 109.287 89.6722 109.192C89.6964 109.097 89.7219 109.001 89.748 108.906C89.7986 108.715 89.8507 108.525 89.9042 108.333C89.9302 108.237 89.9576 108.142 89.9846 108.046C90.12 107.568 90.263 107.089 90.4121 106.611C90.4504 106.487 90.4897 106.364 90.529 106.24C90.5365 106.216 90.5446 106.192 90.5522 106.167C90.5839 106.069 90.6161 105.97 90.6483 105.871C90.7387 105.594 90.8314 105.315 90.9271 105.036C90.9881 104.857 91.0501 104.679 91.1136 104.5C91.1173 104.489 91.1211 104.478 91.1249 104.468C91.186 104.294 91.2475 104.121 91.3109 103.948C91.3446 103.857 91.3782 103.764 91.4122 103.672C91.4463 103.58 91.4799 103.487 91.515 103.395C91.5457 103.311 91.5774 103.227 91.6092 103.143C91.6641 102.998 91.719 102.854 91.7758 102.709C91.8075 102.625 91.8397 102.542 91.8723 102.459C91.9126 102.356 91.9528 102.252 91.994 102.148C92.0252 102.07 92.0565 101.991 92.0882 101.913C92.1734 101.7 92.2605 101.485 92.3485 101.27C92.3845 101.182 92.4205 101.096 92.4569 101.008C92.4583 101.004 92.4593 101.001 92.4616 100.997C92.5019 100.901 92.5416 100.804 92.5828 100.707C92.6273 100.601 92.6728 100.494 92.7177 100.387C92.7561 100.297 92.7954 100.207 92.8342 100.116C92.8716 100.029 92.9099 99.9416 92.9478 99.8535C93.0576 99.6008 93.1698 99.347 93.2843 99.0914C93.3198 99.0119 93.3558 98.9324 93.3918 98.8519C93.4718 98.6739 93.5532 98.496 93.636 98.3166C93.6824 98.2157 93.7288 98.114 93.7761 98.0131C93.9645 97.6065 94.1591 97.1971 94.3584 96.7843L94.3702 96.7569C97.304 89.2292 98.823 82.8949 98.8845 77.9281C98.947 72.8576 97.4976 69.0524 94.5747 66.6194C93.1149 65.4043 91.0946 65.1525 89.4265 65.9775C86.6191 67.3663 83.9277 70.8236 81.4289 76.2553C79.0948 81.3277 76.8426 88.2972 74.732 96.9784L58.1866 87.7344L57.9835 87.9753C57.9679 87.9938 57.9528 88.0118 57.9362 88.0303C57.8529 88.1268 57.7649 88.2229 57.6711 88.3185C56.3136 89.704 53.8981 90.9499 50.312 92.1176C48.1308 92.8291 46.3652 94.1218 44.9168 96.0696C43.315 98.2228 42.142 101.115 41.3307 104.909C38.1607 113.389 35.2998 123.013 32.827 133.515L32.8237 133.531C30.3425 146.421 25.2933 158.744 17.8177 170.155L17.8125 170.163L3.55859 193.095M4.44139 193.289L4.84089 192.476L18.4572 170.568C22.2624 164.758 25.4689 158.677 27.988 152.494C30.4546 146.438 32.3329 140.108 33.5711 133.68C36.0387 123.202 38.8925 113.602 42.0549 105.147L42.0649 105.121L42.0706 105.093C43.5531 98.1362 46.2474 94.2429 50.5496 92.8404C54.3728 91.5955 56.9337 90.2389 58.3584 88.7005L74.5256 97.7334L75.2025 98.1116L75.2375 98.131L75.3554 97.643C77.4878 88.7829 79.7651 81.6936 82.1214 76.572C84.5459 71.3031 87.1171 67.9674 89.7645 66.6586C91.1628 65.9671 92.8597 66.181 94.0881 67.2025C96.8254 69.4817 98.183 73.0867 98.1238 77.9167C98.1068 79.2871 97.9757 80.7653 97.7324 82.3482C97.6912 82.6123 97.6476 82.8788 97.6008 83.1482C97.5852 83.2381 97.5691 83.3285 97.553 83.4189C97.5203 83.5997 97.4862 83.782 97.4507 83.9656C97.4152 84.1498 97.3783 84.3339 97.3404 84.5204C97.2827 84.7992 97.2221 85.0813 97.1591 85.3663C96.9258 86.4109 96.6512 87.493 96.3341 88.613C96.3052 88.7147 96.2759 88.8165 96.247 88.9192C96.1585 89.2264 96.0667 89.5365 95.972 89.8489C95.9408 89.953 95.9081 90.0576 95.8764 90.1622C95.7793 90.477 95.6795 90.7941 95.5767 91.1141C95.4736 91.4341 95.3675 91.7569 95.2587 92.0826C95.1858 92.2994 95.1119 92.5176 95.0362 92.7372C94.8094 93.3952 94.5714 94.064 94.32 94.7433C94.2476 94.9383 94.1747 95.1352 94.0994 95.3326C93.9593 95.7065 93.8149 96.0838 93.6663 96.4644C92.1365 99.6353 90.9252 102.593 89.9714 105.49C89.9226 105.638 89.8748 105.785 89.8275 105.932C89.7958 106.031 89.7645 106.131 89.7328 106.229C89.4862 107.013 89.2566 107.799 89.0455 108.582C88.9859 108.803 88.9276 109.023 88.8713 109.243C88.815 109.463 88.7596 109.683 88.7066 109.902C88.6801 110.012 88.6531 110.121 88.6275 110.231C88.5499 110.56 88.4751 110.887 88.4041 111.213C88.3904 111.277 88.3762 111.341 88.3629 111.406C88.078 112.738 87.8418 114.087 87.6605 115.427C87.6364 115.602 87.6136 115.778 87.5919 115.954C87.287 118.388 87.1512 120.885 87.1862 123.374C87.0361 125.495 86.7365 127.718 86.2963 129.98C84.8157 137.604 81.6495 146.122 76.8862 155.299C73.6698 161.497 69.4026 167.108 64.2028 171.979C61.7537 174.273 59.4542 176.858 57.3246 179.706C57.1727 179.91 57.0217 180.114 56.8712 180.321C56.528 180.791 56.19 181.268 55.8558 181.752C55.7119 181.961 55.569 182.171 55.427 182.382C54.5996 183.612 53.801 184.885 53.0333 186.199C50.5345 190.477 48.1507 196.264 46.342 201.322C46.1262 201.922 46.9276 199.651 46.7231 200.26" fill="#202124"/>
<path d="M87.9673 116.002C87.6719 118.363 87.5276 120.818 87.565 123.384C87.413 125.539 87.1139 127.762 86.668 130.052L88.4113 131.741C87.3695 134.593 87.0765 137.393 88.6622 140.061C89.0546 140.721 89.7949 141.099 90.5575 141.004C93.0903 140.69 95.459 137.398 99.3163 134.184C100.562 133.145 100.398 131.127 100.149 129.525C98.4231 118.401 98.5783 121.185 87.9673 116.001V116.002Z" fill="white"/>
<path d="M88.3343 140.256C86.9142 137.866 86.7964 135.187 87.9693 131.844L86.2539 130.183L86.2932 129.98C86.7334 127.718 87.0326 125.496 87.1831 123.374C87.1481 120.886 87.2844 118.39 87.5887 115.955L87.655 115.427L88.134 115.66C90.3242 116.73 92.051 117.458 93.4384 118.043C96.1047 119.166 97.5731 119.786 98.5179 121.288C99.4546 122.779 99.8503 125.118 100.525 129.467C100.811 131.309 100.92 133.344 99.5597 134.477C98.3176 135.513 97.2119 136.574 96.2363 137.511C94.1153 139.547 92.4401 141.155 90.604 141.383C90.2873 141.423 89.972 141.394 89.6762 141.306C89.1267 141.143 88.6424 140.774 88.3347 140.256L88.3343 140.256ZM87.9452 123.379L87.9442 123.411C87.7965 125.505 87.5059 127.694 87.0804 129.922L88.8535 131.64L88.7688 131.872C87.5921 135.093 87.6621 137.634 88.9894 139.867C89.3084 140.403 89.9053 140.702 90.5102 140.627C92.095 140.431 93.6897 138.899 95.709 136.961C96.6936 136.016 97.8097 134.944 99.0721 133.892C100.14 133.002 100.025 131.215 99.7727 129.584C98.4369 120.976 98.3375 120.934 93.143 118.745C91.8498 118.2 90.2641 117.531 88.2817 116.578C88.0256 118.816 87.9125 121.101 87.9456 123.38L87.9452 123.379Z" fill="#202124"/>
<path d="M88.7734 111.295C91.2514 114.012 94.5412 115.162 98.3653 115.284C98.097 119.028 99.1644 121.162 101.808 123.723C103.235 125.105 105.057 126.023 107.023 126.302C112.078 127.019 110.665 122.384 108.401 115.039C106.665 106.179 105.602 105.784 101.519 104.677L98.239 110.548L90.1873 106.049C89.6416 107.752 89.1649 109.497 88.7734 111.295Z" fill="white"/>
<path d="M101.543 123.997C98.7583 121.299 97.7927 119.078 97.9612 115.649C93.9193 115.445 90.8184 114.102 88.4919 111.551L88.3594 111.406L88.401 111.213C88.7797 109.474 89.2587 107.698 89.8244 105.933L89.9664 105.49L98.0914 110.03L101.331 104.232L101.617 104.31C103.609 104.85 105.049 105.24 106.145 106.725C107.149 108.084 107.861 110.313 108.77 114.946C110.431 120.336 111.629 124.229 110.193 125.913C109.566 126.647 108.511 126.897 106.968 126.679C106.509 126.614 106.055 126.514 105.609 126.381C104.102 125.933 102.692 125.112 101.542 123.997H101.543ZM101.705 105.123L98.3849 111.066L90.409 106.61C89.9318 108.139 89.5219 109.674 89.1873 111.182C91.429 113.56 94.4372 114.778 98.3763 114.904L98.7725 114.916L98.7441 115.312C98.498 118.747 99.3377 120.8 102.073 123.45C103.449 124.784 105.225 125.663 107.076 125.925C108.34 126.104 109.17 125.939 109.614 125.419C110.78 124.052 109.569 120.124 108.036 115.151L108.026 115.112C107.151 110.647 106.452 108.422 105.533 107.177C104.8 106.185 103.912 105.768 102.475 105.341C102.234 105.27 101.978 105.198 101.705 105.123Z" fill="#202124"/>
<path d="M104.035 100.171C112.119 107.171 116.748 107.385 119.196 103.311C120.743 98.9423 116.162 93.7904 110.551 88.5078L104.035 100.171V100.171Z" fill="white"/>
<path d="M103.789 100.458L103.555 100.255L110.46 87.8953L110.815 88.2299C113.151 90.4291 116.064 93.3042 117.879 96.0411C119.764 98.8859 120.314 101.305 119.559 103.438L119.546 103.474L119.526 103.506C118.561 105.112 117.278 106.053 115.712 106.302C114.773 106.452 113.735 106.359 112.593 106.019C110.159 105.295 107.248 103.453 103.789 100.458V100.458ZM117.244 96.4624C115.563 93.9257 112.888 91.2428 110.648 89.1203L104.523 100.085C109.245 104.13 112.968 105.969 115.592 105.551C116.934 105.337 118.001 104.55 118.853 103.147C119.504 101.264 118.977 99.0771 117.244 96.4624Z" fill="#202124"/>
<path d="M113.578 83.097C120.797 84.2302 127.144 74.1332 119.798 71.9644L113.578 83.097Z" fill="white"/>
<path d="M119.615 71.5127L119.907 71.5988C122.61 72.4002 123.884 74.3845 123.314 76.9155C122.915 78.6905 121.63 80.5148 119.879 81.7957C117.936 83.2162 115.678 83.8121 113.521 83.4732L112.98 83.3885L119.615 71.5127H119.615ZM114.19 82.784C118.121 83.0718 121.862 79.8952 122.57 76.7479C122.843 75.5376 122.852 73.4018 119.979 72.421L114.19 82.784Z" fill="#202124"/>
<path d="M91.9262 124.525L88.0781 131.565L88.7464 131.931L92.5945 124.89L91.9262 124.525Z" fill="#202124"/>
<path d="M62.301 120.729C68.3253 113.585 72.7141 105.828 75.3459 97.6708L74.6212 97.437C72.0197 105.499 67.6787 113.17 61.7188 120.237L62.301 120.728V120.729Z" fill="#202124"/>
<path d="M109.259 124.211C109.665 124.332 110.088 124.36 110.517 124.287L110.389 123.536C110.063 123.592 109.757 123.568 109.471 123.483C108.425 123.172 107.66 122.045 107.277 121C106.55 119.018 106.771 116.448 108.597 115.367L108.209 114.711C107.175 115.323 106.493 116.343 106.236 117.66C106.013 118.802 106.129 120.081 106.562 121.262C107.133 122.819 108.126 123.874 109.259 124.211Z" fill="#202124"/>
<path d="M89.4292 79.8915C86.7889 79.0111 85.4242 78.0715 84.8666 76.7494C84.3795 75.5949 84.5627 74.1673 85.4251 72.3842C87.2745 68.5634 89.6133 66.8399 92.1888 67.4004C93.6107 67.7095 94.7349 68.6367 95.4412 70.0809C96.0594 71.3452 96.3457 72.966 96.27 74.7685C96.1753 77.0159 95.4383 78.6769 94.1395 79.572C92.9921 80.3625 91.4674 80.5026 89.7146 79.9815C89.6199 79.9535 89.5248 79.9232 89.4292 79.8915ZM92.0269 68.1445C89.2574 67.5419 87.2811 70.2977 86.1106 72.716C85.3489 74.2899 85.1714 75.5126 85.5681 76.4531C86.0253 77.538 87.2906 78.3754 89.6696 79.1687C91.3065 79.7145 92.7024 79.6373 93.7068 78.9448C94.8012 78.1908 95.4241 76.7352 95.5089 74.7363C95.6225 72.0401 94.8329 68.9671 92.3105 68.2174C92.2182 68.1899 92.124 68.1658 92.0269 68.1445Z" fill="#202124"/>
<path d="M91.0025 141.128L91.5355 140.583C90.1968 139.272 91.1937 137.778 91.5312 137.351C92.7406 135.821 95.1712 134.984 97.1451 136.231L97.5517 135.587C95.2152 134.111 92.352 135.085 90.9338 136.879C89.7845 138.333 89.8106 139.961 91.0025 141.128V141.128Z" fill="#202124"/>
<path d="M52.6394 175.657L52.1406 176.232L57.1298 180.556L57.6286 179.98L52.6394 175.657Z" fill="#202124"/>
<path d="M52.0747 179.256L51.6562 179.893L55.9718 182.731L56.3903 182.094L52.0747 179.256Z" fill="#202124"/>
<path d="M83.8304 93.5348C85.5704 94.0522 87.5736 94.4252 89.8282 94.65L89.9039 93.8922C85.5032 93.4529 82.1064 92.4466 79.8079 90.9016L79.3828 91.5335C80.5894 92.3448 82.0762 93.0132 83.8304 93.5348Z" fill="#202124"/>
<path d="M90.3454 92.236L90.7804 91.6107C86.8829 88.8979 83.328 87.8499 80.2148 88.497L80.3696 89.2425C83.2698 88.6399 86.6259 89.6472 90.3449 92.236H90.3454Z" fill="#202124"/>
<path d="M59.932 101.964L59.4922 102.586L69.5483 109.698L69.988 109.076L59.932 101.964Z" fill="#202124"/>
<path d="M58.6586 112.345L58.625 113.106L67.4977 113.498L67.5314 112.737L58.6586 112.345Z" fill="#202124"/>
<path d="M4.48101 184.251C4.48101 184.251 46.1419 169.463 60.4936 176.633C66.4758 176.899 65.2203 210.245 44.3495 207.587C23.4787 204.928 -3.37377 196.42 0.348625 193.23C4.07055 190.04 4.48101 184.251 4.48101 184.251Z" fill="white"/>
</g>
<path d="M160.031 39.053H108.283C104.276 39.053 101.027 42.3014 101.027 46.3086V159.541C101.027 163.548 104.276 166.796 108.283 166.796H160.031C164.038 166.796 167.286 163.548 167.286 159.541V46.3086C167.286 42.3014 164.038 39.053 160.031 39.053Z" fill="white" stroke="#202124" stroke-width="2.02975" stroke-miterlimit="10" stroke-linecap="round"/>
<defs>
<clipPath id="clip0_3774_7285">
<rect width="177.235" height="208" fill="white"/>
</clipPath>
</defs>
</svg>
