<svg width="143" height="43" viewBox="0 0 143 43" fill="none" xmlns="http://www.w3.org/2000/svg">
<g clip-path="url(#clip0_4508_2500)">
<path d="M5.56599 25.7995C6.12944 25.4149 6.95178 25.2207 8.02919 25.2207C9.1066 25.2207 9.95939 25.4149 10.7627 25.7995C11.5622 26.1879 12.2513 26.7401 12.8338 27.456L15.236 25.0532C14.4632 23.9755 13.4772 23.1682 12.2779 22.6313C11.0787 22.0905 9.70432 21.824 8.15863 21.824C6.6967 21.824 5.44036 22.0601 4.3896 22.5285C3.33883 22.9968 2.53173 23.667 1.96827 24.5353C1.40102 25.4035 1.11929 26.4316 1.11929 27.6197C1.11929 28.8078 1.37437 29.7674 1.88452 30.4986C2.39467 31.2297 3.04949 31.8009 3.84899 32.216C4.64848 32.6311 5.49746 32.9623 6.39594 33.2099C7.29442 33.4574 8.1396 33.7125 8.9429 33.9753C9.74239 34.238 10.3972 34.5693 10.9074 34.9692C11.4175 35.369 11.6726 35.9288 11.6726 36.6447C11.6726 37.3606 11.3566 37.9203 10.7208 38.3202C10.085 38.72 9.19036 38.9219 8.02919 38.9219C6.86802 38.9219 5.82107 38.7086 4.88452 38.2783C3.94797 37.8518 3.11802 37.1968 2.40229 36.3134L0 38.7162C0.60533 39.4626 1.31726 40.1023 2.13198 40.6431C2.9467 41.18 3.84899 41.5951 4.84264 41.8845C5.8363 42.1739 6.88325 42.3186 7.98731 42.3186C10.1954 42.3186 11.9543 41.7817 13.264 40.704C14.5736 39.6263 15.2284 38.1641 15.2284 36.3172C15.2284 35.1024 14.9734 34.1238 14.4632 33.3774C13.9531 32.6311 13.2982 32.037 12.4987 31.5953C11.6992 31.1536 10.8579 30.8032 9.97462 30.5405C9.09137 30.2777 8.24239 30.0226 7.42767 29.7751C6.61295 29.5275 5.95812 29.2229 5.4632 28.8649C4.96828 28.507 4.71701 27.9967 4.71701 27.3341C4.71701 26.6715 4.99873 26.1879 5.56599 25.8033" fill="#3DB75A"/>
<path d="M26.0615 32.0098L31.083 19.4662L36.0818 32.0098H26.0615ZM29.7201 13.1716L17.9219 41.9067H22.1021L24.7023 35.4065H37.4333L40.0259 41.9067H44.248L32.5336 13.1716H29.7201Z" fill="#3DB75A"/>
<path d="M63.3741 22.2388H59.0264L54.1685 29.0855L49.1736 22.2388H44.6203L51.7738 31.8273L44.2891 41.907H48.6787L53.9591 34.4891L59.2358 41.907H63.7472L56.3804 31.7397L63.3741 22.2388Z" fill="#3DB75A"/>
<path d="M71.9817 26.0885C72.9487 25.5364 74.0641 25.2622 75.3357 25.2622C76.6073 25.2622 77.5857 25.5173 78.4423 26.0276C79.2989 26.5379 79.9614 27.2576 80.4296 28.1791C80.7494 28.8074 80.9512 29.5386 81.054 30.3535H69.1073C69.2329 29.6452 69.4423 28.9902 69.7469 28.4076C70.2723 27.4137 71.0147 26.6407 71.9817 26.0885ZM80.2202 23.0688C78.8116 22.2425 77.2126 21.8274 75.4195 21.8274C73.5159 21.8274 71.7989 22.2767 70.2647 23.1716C68.7342 24.0703 67.5159 25.2889 66.6213 26.8349C65.7228 28.3809 65.2773 30.1212 65.2773 32.0518C65.2773 33.9825 65.7342 35.7646 66.6441 37.3107C67.554 38.8567 68.7913 40.0791 70.3484 40.974C71.9093 41.8727 73.6796 42.3182 75.6669 42.3182C77.2126 42.3182 78.6593 42.0288 80.0147 41.45C81.37 40.8712 82.5273 40.0296 83.4905 38.9253L81.0883 36.4805C80.4258 37.2536 79.6339 37.8324 78.7088 38.2208C77.7837 38.6092 76.771 38.7996 75.6669 38.7996C74.3421 38.7996 73.1695 38.5178 72.1492 37.9504C71.1289 37.383 70.3408 36.5834 69.7888 35.5476C69.4537 34.9193 69.2329 34.2148 69.0997 33.457H84.4842C84.568 33.0686 84.6213 32.7182 84.6479 32.4022C84.6746 32.0861 84.6898 31.7891 84.6898 31.5111C84.6898 29.6338 84.2977 27.9659 83.5096 26.4998C82.7215 25.0375 81.6251 23.8913 80.2202 23.0612" fill="#3DB75A"/>
<path d="M92.5816 25.7995C93.1451 25.4149 93.9674 25.2207 95.0448 25.2207C96.0651 25.2207 96.975 25.4149 97.7783 25.7995C98.5778 26.1879 99.2669 26.7401 99.8494 27.456L102.252 25.0532C101.479 23.9755 100.493 23.1682 99.2897 22.6313C98.0905 22.0905 96.7161 21.824 95.1705 21.824C93.7085 21.824 92.4522 22.0601 91.4052 22.5285C90.3545 22.9968 89.5474 23.667 88.9839 24.5353C88.4166 25.4035 88.1349 26.4316 88.1349 27.6197C88.1349 28.8078 88.39 29.7674 88.9001 30.4986C89.4103 31.2297 90.0651 31.8009 90.8646 32.216C91.6641 32.6311 92.5131 32.9623 93.4116 33.2099C94.3062 33.4574 95.1552 33.7125 95.9585 33.9753C96.758 34.238 97.4128 34.5693 97.923 34.9692C98.4331 35.369 98.6882 35.9288 98.6882 36.6447C98.6882 37.3606 98.3684 37.9203 97.7364 38.3202C97.1007 38.72 96.206 38.9219 95.0448 38.9219C93.8836 38.9219 92.8367 38.7086 91.9001 38.2783C90.9636 37.8518 90.1336 37.1968 89.4179 36.3134L87.0156 38.7162C87.621 39.4626 88.3329 40.1023 89.1476 40.6431C89.9623 41.18 90.8646 41.5951 91.8583 41.8845C92.8519 42.1739 93.8989 42.3186 95.0029 42.3186C97.2111 42.3186 98.9699 41.7817 100.28 40.704C101.589 39.6263 102.244 38.1641 102.244 36.3172C102.244 35.1024 101.989 34.1238 101.479 33.3774C100.969 32.6311 100.314 32.037 99.5144 31.5953C98.7149 31.1536 97.8735 30.8032 96.9902 30.5405C96.107 30.2777 95.258 30.0226 94.4433 29.7751C93.6286 29.5275 92.9737 29.2229 92.475 28.8649C91.9801 28.507 91.7288 27.9967 91.7288 27.3341C91.7288 26.6715 92.0106 26.1879 92.5778 25.8033" fill="#3DB75A"/>
<path d="M117.186 31.5949C116.387 31.1532 115.545 30.8028 114.662 30.5401C113.779 30.2773 112.93 30.0222 112.115 29.7747C111.3 29.5272 110.646 29.2225 110.147 28.8646C109.652 28.5066 109.401 27.9963 109.401 27.3337C109.401 26.6712 109.682 26.1875 110.25 25.8029C110.813 25.4183 111.635 25.2241 112.713 25.2241C113.733 25.2241 114.643 25.4183 115.446 25.8029C116.246 26.1914 116.935 26.7397 117.517 27.4594L119.92 25.0566C119.147 23.9789 118.161 23.1716 116.958 22.6347C115.759 22.094 114.384 21.8274 112.839 21.8274C111.377 21.8274 110.12 22.0635 109.073 22.5319C108.023 23.0003 107.215 23.6705 106.652 24.5387C106.085 25.4069 105.803 26.4351 105.803 27.6232C105.803 28.8112 106.058 29.7709 106.568 30.502C107.078 31.2331 107.733 31.8043 108.533 32.2194C109.332 32.6345 110.181 32.9658 111.08 33.2133C111.974 33.4608 112.823 33.7159 113.627 33.9787C114.426 34.2414 115.081 34.5727 115.595 34.9726C116.105 35.3724 116.36 35.9322 116.36 36.6481C116.36 37.364 116.044 37.9238 115.408 38.3236C114.773 38.7234 113.878 38.9253 112.717 38.9253C111.556 38.9253 110.509 38.712 109.572 38.2817C108.632 37.8552 107.806 37.2003 107.09 36.3168L104.688 38.7196C105.293 39.466 106.005 40.1057 106.819 40.6465C107.634 41.1834 108.536 41.5985 109.53 41.8879C110.524 42.1773 111.571 42.322 112.675 42.322C114.883 42.322 116.642 41.7851 117.951 40.7074C119.261 39.6297 119.916 38.1675 119.916 36.3206C119.916 35.1059 119.661 34.1272 119.151 33.3808C118.641 32.6345 117.986 32.0404 117.186 31.5987" fill="#3DB75A"/>
<path d="M132.13 21.3539C135.353 18.9235 137.358 14.9879 137.422 10.9531C139.126 10.0092 141.055 9.48509 142.999 9.41479C142.887 15.3477 138.018 20.6809 132.129 21.3539H132.13Z" fill="url(#paint0_linear_4508_2500)" fill-opacity="0.55"/>
<path d="M132.13 21.3539C135.353 18.9235 137.358 14.9879 137.422 10.9531C139.126 10.0092 141.055 9.48509 142.999 9.41479C142.887 15.3477 138.018 20.6809 132.129 21.3539H132.13Z" fill="#3DB75A" style="mix-blend-mode:color"/>
<path d="M137.397 9.8246C137.271 7.93174 136.743 6.0699 135.848 4.39517C137.574 3.47821 139.509 2.97372 141.46 2.93237C142.401 4.63708 142.931 6.56405 143.001 8.52306C141.059 8.58716 139.139 9.07717 137.406 9.95278C137.403 9.9104 137.4 9.86801 137.397 9.82563V9.8246Z" fill="url(#paint1_linear_4508_2500)" fill-opacity="0.55"/>
<path d="M137.397 9.8246C137.271 7.93174 136.743 6.0699 135.848 4.39517C137.574 3.47821 139.509 2.97372 141.46 2.93237C142.401 4.63708 142.931 6.56405 143.001 8.52306C141.059 8.58716 139.139 9.07717 137.406 9.95278C137.403 9.9104 137.4 9.86801 137.397 9.82563V9.8246Z" fill="#3DB75A" style="mix-blend-mode:color"/>
<path d="M132.581 13.7801C132.369 12.0982 131.833 10.4482 131.016 8.96373C132.019 7.29521 133.427 5.87479 135.076 4.84204C135.987 6.56019 136.494 8.49439 136.53 10.4369C135.003 11.3673 133.664 12.5902 132.61 14.0375C132.61 14.0324 132.581 13.7801 132.581 13.7801Z" fill="url(#paint2_linear_4508_2500)" fill-opacity="0.55"/>
<path d="M132.581 13.7801C132.369 12.0982 131.833 10.4482 131.016 8.96373C132.019 7.29521 133.427 5.87479 135.076 4.84204C135.987 6.56019 136.494 8.49439 136.53 10.4369C135.003 11.3673 133.664 12.5902 132.61 14.0375C132.61 14.0324 132.581 13.7801 132.581 13.7801Z" fill="#3DB75A" style="mix-blend-mode:color"/>
<path d="M130.47 8.02111L130.46 8.04386C129.42 6.4632 127.989 5.07277 126.371 4.07C127.41 2.40871 128.833 1.00587 130.502 0C132.169 1.00277 133.592 2.40561 134.632 4.07C132.983 5.09758 131.575 6.46941 130.512 8.09141L130.47 8.02008V8.02111Z" fill="url(#paint3_linear_4508_2500)" fill-opacity="0.55"/>
<path d="M130.47 8.02111L130.46 8.04386C129.42 6.4632 127.989 5.07277 126.371 4.07C127.41 2.40871 128.833 1.00587 130.502 0C132.169 1.00277 133.592 2.40561 134.632 4.07C132.983 5.09758 131.575 6.46941 130.512 8.09141L130.47 8.02008V8.02111Z" fill="#3DB75A" style="mix-blend-mode:color"/>
<path d="M128.388 14.0367C127.334 12.5925 125.999 11.3685 124.469 10.4381C124.502 8.49561 125.013 6.55727 125.922 4.84326C127.572 5.87601 128.982 7.29953 129.982 8.96495C129.122 10.5229 128.575 12.2627 128.388 14.0367Z" fill="url(#paint4_linear_4508_2500)" fill-opacity="0.55"/>
<path d="M128.388 14.0367C127.334 12.5925 125.999 11.3685 124.469 10.4381C124.502 8.49561 125.013 6.55727 125.922 4.84326C127.572 5.87601 128.982 7.29953 129.982 8.96495C129.122 10.5229 128.575 12.2627 128.388 14.0367Z" fill="#3DB75A" style="mix-blend-mode:color"/>
<path d="M130.313 21.27C126.964 19.1818 124.739 15.4446 124.496 11.5101C126.56 12.8157 128.08 14.9495 129.208 17.0801C129.116 14.6435 129.361 12.0972 130.5 9.90356C131.648 12.1355 131.877 14.6073 131.794 17.0801C132.856 15.0869 134.233 13.0793 136.117 11.7788H136.131C136.242 11.6765 136.369 11.6062 136.505 11.5101C136.256 15.5191 133.949 19.3255 130.499 21.3847C130.488 21.3775 130.311 21.27 130.311 21.27H130.313Z" fill="url(#paint5_linear_4508_2500)" fill-opacity="0.55"/>
<path d="M130.313 21.27C126.964 19.1818 124.739 15.4446 124.496 11.5101C126.56 12.8157 128.08 14.9495 129.208 17.0801C129.116 14.6435 129.361 12.0972 130.5 9.90356C131.648 12.1355 131.877 14.6073 131.794 17.0801C132.856 15.0869 134.233 13.0793 136.117 11.7788H136.131C136.242 11.6765 136.369 11.6062 136.505 11.5101C136.256 15.5191 133.949 19.3255 130.499 21.3847C130.488 21.3775 130.311 21.27 130.311 21.27H130.313Z" fill="#3DB75A" style="mix-blend-mode:color"/>
<path d="M123.582 9.94038V9.94555C121.857 9.07717 119.934 8.58613 118 8.52307C118.068 6.56715 118.599 4.64018 119.54 2.93237C121.493 2.97476 123.427 3.47924 125.152 4.39621C124.24 6.10298 123.704 8.01444 123.595 9.94762L123.582 9.94038Z" fill="url(#paint6_linear_4508_2500)" fill-opacity="0.55"/>
<path d="M123.582 9.94038V9.94555C121.857 9.07717 119.934 8.58613 118 8.52307C118.068 6.56715 118.599 4.64018 119.54 2.93237C121.493 2.97476 123.427 3.47924 125.152 4.39621C124.24 6.10298 123.704 8.01444 123.595 9.94762L123.582 9.94038Z" fill="#3DB75A" style="mix-blend-mode:color"/>
<path d="M128.87 21.3539C122.981 20.682 118.114 15.3477 118 9.41479C119.943 9.48406 121.876 10.0113 123.578 10.9531C123.641 14.9869 125.65 18.9256 128.87 21.3539Z" fill="url(#paint7_linear_4508_2500)" fill-opacity="0.55"/>
<path d="M128.87 21.3539C122.981 20.682 118.114 15.3477 118 9.41479C119.943 9.48406 121.876 10.0113 123.578 10.9531C123.641 14.9869 125.65 18.9256 128.87 21.3539Z" fill="#3DB75A" style="mix-blend-mode:color"/>
</g>
<defs>
<linearGradient id="paint0_linear_4508_2500" x1="135.486" y1="20.9434" x2="149.301" y2="12.326" gradientUnits="userSpaceOnUse">
<stop stop-color="#576265"/>
<stop offset="0.387382" stop-color="#848B8A"/>
<stop offset="0.982058" stop-color="#576265"/>
</linearGradient>
<linearGradient id="paint1_linear_4508_2500" x1="138.057" y1="9.71139" x2="146.548" y2="3.78407" gradientUnits="userSpaceOnUse">
<stop stop-color="#576265"/>
<stop offset="0.387382" stop-color="#848B8A"/>
<stop offset="0.982058" stop-color="#576265"/>
</linearGradient>
<linearGradient id="paint2_linear_4508_2500" x1="132.719" y1="13.7213" x2="141.048" y2="10.2989" gradientUnits="userSpaceOnUse">
<stop stop-color="#576265"/>
<stop offset="0.387382" stop-color="#848B8A"/>
<stop offset="0.982058" stop-color="#576265"/>
</linearGradient>
<linearGradient id="paint3_linear_4508_2500" x1="128.922" y1="7.81319" x2="138.715" y2="0.963099" gradientUnits="userSpaceOnUse">
<stop stop-color="#576265"/>
<stop offset="0.387382" stop-color="#848B8A"/>
<stop offset="0.982058" stop-color="#576265"/>
</linearGradient>
<linearGradient id="paint4_linear_4508_2500" x1="126.172" y1="13.7206" x2="134.499" y2="10.2987" gradientUnits="userSpaceOnUse">
<stop stop-color="#576265"/>
<stop offset="0.387382" stop-color="#848B8A"/>
<stop offset="0.982058" stop-color="#576265"/>
</linearGradient>
<linearGradient id="paint5_linear_4508_2500" x1="128.205" y1="20.99" x2="142.212" y2="10.9519" gradientUnits="userSpaceOnUse">
<stop stop-color="#576265"/>
<stop offset="0.387382" stop-color="#848B8A"/>
<stop offset="0.982058" stop-color="#576265"/>
</linearGradient>
<linearGradient id="paint6_linear_4508_2500" x1="120.209" y1="9.7064" x2="128.695" y2="3.77873" gradientUnits="userSpaceOnUse">
<stop stop-color="#576265"/>
<stop offset="0.387382" stop-color="#848B8A"/>
<stop offset="0.982058" stop-color="#576265"/>
</linearGradient>
<linearGradient id="paint7_linear_4508_2500" x1="121.357" y1="20.9434" x2="135.172" y2="12.326" gradientUnits="userSpaceOnUse">
<stop stop-color="#576265"/>
<stop offset="0.387382" stop-color="#848B8A"/>
<stop offset="0.982058" stop-color="#576265"/>
</linearGradient>
<clipPath id="clip0_4508_2500">
<rect width="142.656" height="42.322" fill="white"/>
</clipPath>
</defs>
</svg>
