<svg width="275" height="79" viewBox="0 0 275 79" fill="none" xmlns="http://www.w3.org/2000/svg">
<g clip-path="url(#clip0_4235_8072)">
<path opacity="0.3" d="M275.001 13.202C271.746 13.202 268.694 14.0705 266.064 15.5908C266.064 12.5547 265.293 9.47792 263.664 6.65833C266.484 5.02974 269.565 4.2583 272.606 4.2583C274.128 6.88841 275.001 9.94259 275.001 13.202Z" fill="white"/>
<path opacity="0.3" d="M250.575 6.65833C248.947 9.47792 248.175 12.5547 248.175 15.5908C245.545 14.0705 242.493 13.202 239.238 13.202C239.238 9.94259 240.109 6.88841 241.634 4.2583C244.674 4.2583 247.753 5.02974 250.575 6.65833Z" fill="white"/>
<path opacity="0.6" d="M257.119 31.0824C247.244 31.0824 239.238 23.077 239.238 13.2017C242.493 13.2017 245.545 14.0701 248.175 15.5904C248.18 21.7664 251.387 27.771 257.119 31.0846V31.0824Z" fill="white"/>
<path d="M266.063 15.5907C266.059 21.7667 262.851 27.7713 257.12 31.0849C251.386 27.7736 248.178 21.769 248.176 15.5907C250.887 17.1584 253.152 19.4208 254.722 22.1322C254.726 18.999 255.556 15.9155 257.122 13.1997C258.687 15.9155 259.517 18.999 259.522 22.1322C261.09 19.4208 263.354 17.1584 266.068 15.5907H266.063Z" fill="white"/>
<path opacity="0.6" d="M257.118 13.2001C255.552 15.916 254.722 18.9995 254.718 22.1326C253.15 19.4213 250.885 17.1588 248.172 15.5911C248.172 12.555 248.943 9.47828 250.572 6.65869C253.391 8.28729 255.6 10.5655 257.118 13.2001Z" fill="white"/>
<path opacity="0.3" d="M263.666 6.65826C260.847 8.28685 258.638 10.5651 257.12 13.1997C255.604 10.5651 253.396 8.28685 250.574 6.65826C252.203 3.83867 254.486 1.62586 257.12 0.112305C259.755 1.62586 262.038 3.83642 263.666 6.65826Z" fill="white"/>
<path opacity="0.6" d="M266.063 15.5911C263.352 17.1588 261.087 19.4213 259.517 22.1326C259.513 18.9995 258.683 15.916 257.117 13.2001C258.633 10.5655 260.841 8.28729 263.663 6.65869C265.292 9.47828 266.063 12.555 266.063 15.5911Z" fill="white"/>
<path opacity="0.6" d="M274.998 13.202C274.998 23.0773 266.993 31.0827 257.117 31.0827C262.851 27.7713 266.059 21.7667 266.061 15.5885C268.691 14.0681 271.743 13.1997 274.998 13.1997V13.202Z" fill="white"/>
<path d="M26.9643 43.0487C25.6515 42.0427 24.2078 41.2126 22.6334 40.5562C21.0589 39.8998 19.4732 39.2998 17.8762 38.7516C16.2792 38.2058 14.8265 37.6035 13.5137 36.9471C12.2009 36.2907 11.1408 35.4945 10.3332 34.5516C9.52344 33.611 9.11967 32.3771 9.11967 30.8455C9.11967 28.9214 9.84149 27.4237 11.2851 26.3522C12.7287 25.2808 14.6731 24.7439 17.1228 24.7439C19.1348 24.7439 20.9168 25.1364 22.471 25.9237C24.0229 26.7109 25.4778 27.8929 26.8334 29.4673L31.0313 25.2695C29.5425 23.3905 27.6207 21.8702 25.259 20.7108C22.8973 19.5514 20.2288 18.9717 17.2536 18.9717C14.54 18.9717 12.1039 19.4634 9.93848 20.4469C7.77304 21.4326 6.06775 22.8311 4.82037 24.6469C3.57524 26.4628 2.95042 28.6598 2.95042 31.2403C2.95042 33.602 3.34516 35.5373 4.13239 37.0464C4.91962 38.5554 5.97978 39.7915 7.31514 40.7524C8.64824 41.7156 10.1031 42.5141 11.6776 43.1457C13.2521 43.7818 14.8265 44.3592 16.401 44.8848C17.9754 45.4081 19.4191 46.0104 20.7319 46.6894C22.0447 47.3683 23.1048 48.23 23.9124 49.2811C24.7221 50.3323 25.1259 51.7082 25.1259 53.4135C25.1259 55.4684 24.3071 57.088 22.665 58.2677C21.0251 59.4474 18.8484 60.0384 16.1371 60.0384C13.4257 60.0384 11.0641 59.5241 9.18283 58.4978C7.3016 57.4715 5.64143 55.9511 4.1978 53.9391L0 58.1391C1.96694 60.6316 4.22036 62.5354 6.75799 63.846C9.29336 65.1588 12.334 65.8129 15.8777 65.8129C20.6439 65.8129 24.4176 64.6761 27.1944 62.4023C29.9711 60.1286 31.3606 56.9797 31.3606 52.9556C31.3606 50.5511 30.9546 48.5503 30.147 46.9533C29.3372 45.3563 28.2771 44.057 26.9665 43.0487H26.9643Z" fill="white"/>
<path d="M59.8369 35.3078C57.606 33.995 55.0684 33.3408 52.2262 33.3408C49.2082 33.3408 46.4856 34.0514 44.0585 35.4724C41.6314 36.8935 39.7073 38.8289 38.2862 41.2785C36.8629 43.7282 36.1523 46.4846 36.1523 49.5456C36.1523 52.6065 36.8742 55.4283 38.3178 57.878C39.7614 60.3277 41.7171 62.263 44.1893 63.6841C46.6593 65.1074 49.4698 65.8157 52.621 65.8157C55.0707 65.8157 57.3669 65.3578 59.5098 64.4375C61.6527 63.5194 63.4888 62.1863 65.0204 60.4359L61.2151 56.5652C60.1639 57.79 58.9075 58.7081 57.4436 59.3194C55.9774 59.9329 54.3691 60.2374 52.621 60.2374C50.521 60.2374 48.6623 59.7886 47.045 58.893C45.4277 57.9975 44.1803 56.7276 43.3051 55.0877C42.7705 54.0862 42.4005 52.9809 42.193 51.7742H66.5971C66.728 51.1629 66.8159 50.6057 66.8588 50.1004C66.9016 49.5974 66.9242 49.1283 66.9242 48.6907C66.9242 45.7177 66.3016 43.0718 65.0542 40.753C63.8091 38.4341 62.07 36.6206 59.8391 35.3078H59.8369ZM46.7811 40.0988C48.3104 39.2259 50.0834 38.786 52.0954 38.786C54.1075 38.786 55.6594 39.192 57.015 39.9996C58.3707 40.8093 59.4196 41.9462 60.1639 43.4101C60.6715 44.4094 61.0008 45.5598 61.1632 46.8545H42.2066C42.4073 45.729 42.7502 44.6981 43.2397 43.771C44.0697 42.1966 45.2517 40.9718 46.7833 40.0966L46.7811 40.0988Z" fill="white"/>
<path d="M91.9817 34.1596C90.7118 33.6138 89.293 33.3408 87.7163 33.3408C84.2606 33.3408 81.6147 34.5205 79.7786 36.8822C79.5936 37.1213 79.4199 37.3694 79.253 37.6243V33.9972H73.3477V65.1616H79.253V47.4478C79.253 44.5605 79.9523 42.4176 81.353 41.0191C82.7515 39.6206 84.5448 38.9191 86.7328 38.9191C87.7839 38.9191 88.6997 39.0725 89.4892 39.3792C90.2765 39.686 90.9983 40.189 91.6547 40.8883L95.5254 36.8867C94.4314 35.619 93.2494 34.7123 91.9817 34.1641V34.1596Z" fill="white"/>
<path d="M120.321 35.3078C118.09 33.995 115.553 33.3408 112.711 33.3408C109.693 33.3408 106.97 34.0514 104.543 35.4724C102.116 36.8935 100.192 38.8289 98.7706 41.2785C97.3473 43.7282 96.6367 46.4846 96.6367 49.5456C96.6367 52.6065 97.3585 55.4283 98.8022 57.878C100.246 60.3277 102.201 62.263 104.674 63.6841C107.144 65.1074 109.954 65.8157 113.105 65.8157C115.555 65.8157 117.851 65.3578 119.994 64.4375C122.137 63.5194 123.973 62.1863 125.505 60.4359L121.699 56.5652C120.648 57.79 119.392 58.7081 117.928 59.3194C116.462 59.9329 114.854 60.2374 113.105 60.2374C111.005 60.2374 109.147 59.7886 107.529 58.893C105.912 57.9975 104.665 56.7276 103.789 55.0877C103.255 54.0862 102.885 52.9809 102.677 51.7742H127.082C127.212 51.1629 127.3 50.6057 127.343 50.1004C127.386 49.5974 127.409 49.1283 127.409 48.6907C127.409 45.7177 126.786 43.0718 125.539 40.753C124.293 38.4341 122.554 36.6206 120.324 35.3078H120.321ZM107.265 40.0988C108.795 39.2259 110.568 38.786 112.58 38.786C114.592 38.786 116.144 39.192 117.499 39.9996C118.855 40.8093 119.904 41.9462 120.648 43.4101C121.156 44.4094 121.485 45.5598 121.648 46.8545H102.691C102.892 45.729 103.235 44.6981 103.724 43.771C104.554 42.1966 105.736 40.9718 107.268 40.0966L107.265 40.0988Z" fill="white"/>
<path d="M155.918 35.1115C154.103 33.9318 152.014 33.3408 149.652 33.3408C147.29 33.3408 145.168 33.8754 143.289 34.9469C141.872 35.7544 140.69 36.7785 139.745 38.0213V33.995H133.84V65.1593H139.745V46.9854C139.745 45.4109 140.095 44.0124 140.796 42.7876C141.496 41.5627 142.459 40.6018 143.684 39.9003C144.908 39.2011 146.307 38.8514 147.881 38.8514C150.243 38.8514 152.156 39.6183 153.622 41.1477C155.086 42.6793 155.819 44.6237 155.819 46.9876V65.1616H161.79V45.8079C161.79 43.665 161.264 41.6417 160.215 39.7379C159.164 37.8364 157.732 36.2935 155.918 35.1138V35.1115Z" fill="white"/>
<path d="M175.764 33.9971H169.793V65.1614H175.764V33.9971Z" fill="white"/>
<path d="M172.81 20.2197C171.716 20.2197 170.818 20.5806 170.121 21.3024C169.42 22.0243 169.07 22.9085 169.07 23.9596C169.07 25.0108 169.42 25.9604 170.121 26.6822C170.821 27.404 171.718 27.7649 172.81 27.7649C173.902 27.7649 174.8 27.404 175.499 26.6822C176.198 25.9604 176.55 25.0536 176.55 23.9596C176.55 22.8656 176.198 22.0243 175.499 21.3024C174.8 20.5806 173.902 20.2197 172.81 20.2197Z" fill="white"/>
<path d="M230.412 33.9971L220.927 56.0914L211.911 33.9971H205.352L217.584 62.4411L209.944 78.215H216.504L222.409 65.4231L236.974 33.9971H230.412Z" fill="white"/>
<path d="M195.181 39.3884V55.6473C195.181 58.415 196.327 59.8022 199.412 59.8022C200.168 59.8022 201.237 59.6737 201.742 59.5473V64.5865C201.237 64.7737 199.726 65.1504 197.714 65.1504C196.807 65.1504 195.963 65.0557 195.181 64.864C191.502 63.9752 189.275 61.0451 189.275 56.5292V39.3907H181.602V34.0132H189.275V20.9551H195.181V34.0132H202.859V39.3907H195.181V39.3884Z" fill="white"/>
</g>
<defs>
<clipPath id="clip0_4235_8072">
<rect width="275" height="78.1026" fill="white" transform="translate(0 0.112305)"/>
</clipPath>
</defs>
</svg>
