<svg width="80" height="79" viewBox="0 0 80 79" fill="none" xmlns="http://www.w3.org/2000/svg">
<path fill-rule="evenodd" clip-rule="evenodd" d="M69.1654 39.1667C69.1654 55.2754 56.1074 68.3333 39.9987 68.3333C23.8899 68.3333 10.832 55.2754 10.832 39.1667C10.832 23.0579 23.8899 10 39.9987 10C56.1074 10 69.1654 23.0579 69.1654 39.1667ZM51.7529 30.3292C52.1625 30.7393 52.3926 31.2953 52.3926 31.875C52.3926 32.4547 52.1625 33.0107 51.7529 33.4208L37.1695 48.0042C36.7594 48.4138 36.2034 48.6439 35.6237 48.6439C35.044 48.6439 34.488 48.4138 34.0779 48.0042L28.2445 42.1708C28.0296 41.9706 27.8572 41.7291 27.7377 41.4607C27.6181 41.1924 27.5538 40.9027 27.5486 40.609C27.5435 40.3153 27.5975 40.0236 27.7075 39.7512C27.8175 39.4788 27.9813 39.2314 28.189 39.0236C28.3967 38.8159 28.6442 38.6522 28.9165 38.5421C29.1889 38.4321 29.4807 38.3781 29.7744 38.3833C30.0681 38.3885 30.3578 38.4527 30.6261 38.5723C30.8944 38.6919 31.1359 38.8643 31.3362 39.0792L35.6237 43.3667L42.1424 36.8479L48.6612 30.3292C49.0714 29.9195 49.6273 29.6894 50.207 29.6894C50.7867 29.6894 51.3427 29.9195 51.7529 30.3292Z" fill="#00A89E"/>
<path d="M39.9987 73.3333C58.8689 73.3333 74.1654 58.0368 74.1654 39.1667C74.1654 20.2965 58.8689 5 39.9987 5C21.1285 5 5.83203 20.2965 5.83203 39.1667C5.83203 58.0368 21.1285 73.3333 39.9987 73.3333Z" stroke="#00A89E" stroke-opacity="0.21" stroke-width="10"/>
</svg>
