<svg width="42" height="42" viewBox="0 0 42 42" fill="none" xmlns="http://www.w3.org/2000/svg">
<g clip-path="url(#clip0_3774_6356)">
<mask id="mask0_3774_6356" style="mask-type:luminance" maskUnits="userSpaceOnUse" x="0" y="0" width="42" height="42">
<path d="M41.2161 0.385498H0.1875V41.4141H41.2161V0.385498Z" fill="white"/>
</mask>
<g mask="url(#mask0_3774_6356)">
<path d="M20.7018 41.4141C32.0316 41.4141 41.2161 32.2295 41.2161 20.8998C41.2161 9.57006 32.0316 0.385498 20.7018 0.385498C9.37205 0.385498 0.1875 9.57006 0.1875 20.8998C0.1875 32.2295 9.37205 41.4141 20.7018 41.4141Z" fill="#F7931A"/>
<path d="M29.7185 18.3609C30.1211 15.6736 28.0735 14.2286 25.2759 13.2644L26.1836 9.62311L23.9681 9.07179L23.0834 12.6169C22.5013 12.4707 21.9038 12.3348 21.3076 12.1989L22.1987 8.63073L19.9832 8.07812L19.0754 11.7181C18.5933 11.6079 18.1189 11.5002 17.6599 11.3848L17.6625 11.3732L14.6059 10.6104L14.0161 12.9772C14.0161 12.9772 15.6611 13.3542 15.6265 13.3772C16.524 13.6016 16.6855 14.1953 16.6586 14.6671L15.6252 18.8148C15.6867 18.8302 15.7662 18.8533 15.856 18.8879L15.6213 18.8302L14.1725 24.6409C14.0622 24.9127 13.784 25.3217 13.1558 25.1665C13.1788 25.1986 11.5454 24.7652 11.5454 24.7652L10.4453 27.3013L13.3301 28.0206C13.8661 28.1552 14.3917 28.2963 14.9085 28.4283L13.9917 32.1106L16.206 32.662L17.1137 29.0207C17.7189 29.1835 18.3061 29.3348 18.8805 29.4784L17.9753 33.1043L20.1909 33.6556L21.1076 29.981C24.8874 30.6964 27.7286 30.408 28.9248 26.9898C29.889 24.2383 28.8774 22.6497 26.8888 21.615C28.3376 21.2817 29.4274 20.329 29.7185 18.3609ZM24.654 25.4614C23.9706 28.2142 19.3357 26.7256 17.833 26.3525L19.0511 21.474C20.5537 21.8496 25.3707 22.592 24.654 25.4614ZM25.34 18.3212C24.7156 20.8252 20.8589 19.552 19.6088 19.2405L20.7114 14.8171C21.9615 15.1287 25.9913 15.7095 25.34 18.3212Z" fill="white"/>
</g>
</g>
<defs>
<clipPath id="clip0_3774_6356">
<rect width="41.0286" height="41.0286" fill="white" transform="translate(0.191406 0.37915)"/>
</clipPath>
</defs>
</svg>
