<svg width="54" height="54" viewBox="0 0 54 54" fill="none" xmlns="http://www.w3.org/2000/svg">
<g clip-path="url(#clip0_3761_26896)">
<path d="M27.0305 53.4838C41.7239 53.4838 53.6352 41.5725 53.6352 26.8791C53.6352 12.1857 41.7239 0.274414 27.0305 0.274414C12.3371 0.274414 0.425781 12.1857 0.425781 26.8791C0.425781 41.5725 12.3371 53.4838 27.0305 53.4838Z" fill="#F0B90B"/>
<path d="M26.4797 9.76904L30.5872 13.9755L20.2442 24.3185L16.1367 20.211L26.4797 9.76904Z" fill="white" stroke="white" stroke-width="1.2093"/>
<path d="M32.7152 16.0044L36.8227 20.2109L20.2442 36.7893L16.1367 32.6818L32.7152 16.0044Z" fill="white" stroke="white" stroke-width="1.2093"/>
<path d="M14.0098 22.2402L18.1173 26.4467L14.0098 30.5542L9.90234 26.4467L14.0098 22.2402Z" fill="white" stroke="white" stroke-width="1.2093"/>
<path d="M38.9535 22.2402L43.061 26.4467L26.4825 43.0252L22.375 38.9177L38.9535 22.2402Z" fill="white" stroke="white" stroke-width="1.2093"/>
</g>
<defs>
<clipPath id="clip0_3761_26896">
<rect width="53.2094" height="53.2094" fill="white" transform="translate(0.425781 0.274414)"/>
</clipPath>
</defs>
</svg>
