<svg width="91" height="129" viewBox="0 0 91 129" fill="none" xmlns="http://www.w3.org/2000/svg">
<path d="M45.2827 114.203C45.2827 114.203 76.581 97.9421 76.581 57.2439C76.581 19.7663 45.2827 3 45.2827 3C45.2827 3 13.9844 19.7663 13.9844 57.2439C13.9844 97.9482 45.2827 114.203 45.2827 114.203Z" stroke="#0F9300" stroke-width="5.17236" stroke-miterlimit="10"/>
<path opacity="0.8" d="M45.2824 38.1572C20.2791 38.1572 0 58.4363 0 83.4396C0 108.443 20.2791 128.722 45.2824 128.722C70.2858 128.722 90.5648 108.443 90.5648 83.4396C90.5648 58.4363 70.2858 38.1572 45.2824 38.1572ZM48.4482 89.6859V99.725H42.1167V89.6859C39.8276 88.5414 38.2812 86.1731 38.2812 83.4214C38.2812 79.5555 41.4044 76.408 45.2946 76.408C49.1848 76.408 52.2836 79.5616 52.2836 83.4214C52.2836 86.1671 50.7372 88.5414 48.4482 89.6859Z" fill="#3DB75A"/>
</svg>
