<svg width="54" height="54" viewBox="0 0 54 54" fill="none" xmlns="http://www.w3.org/2000/svg">
<g clip-path="url(#clip0_3761_26887)">
<path d="M26.6985 53.2763C41.3918 53.2763 53.3032 41.365 53.3032 26.6716C53.3032 11.9782 41.3918 0.0668945 26.6985 0.0668945C12.0051 0.0668945 0.09375 11.9782 0.09375 26.6716C0.09375 41.365 12.0051 53.2763 26.6985 53.2763Z" fill="#8247E5"/>
<g clip-path="url(#clip1_3761_26887)">
<path d="M35.1854 20.5398C34.5792 20.1934 33.7998 20.1934 33.1069 20.5398L28.2571 23.3978L24.9662 25.2164L20.203 28.0744C19.5967 28.4208 18.8173 28.4208 18.1245 28.0744L14.4005 25.8227C13.7943 25.4762 13.3613 24.7834 13.3613 24.004V19.6738C13.3613 18.981 13.7077 18.2881 14.4005 17.8551L18.1245 15.69C18.7307 15.3436 19.5101 15.3436 20.203 15.69L23.9269 17.9417C24.5332 18.2881 24.9662 18.981 24.9662 19.7604V22.6183L28.2571 20.713V17.7685C28.2571 17.0757 27.9107 16.3828 27.2179 15.9498L20.2896 11.8794C19.6833 11.533 18.9039 11.533 18.2111 11.8794L11.1096 16.0364C10.4167 16.3828 10.0703 17.0757 10.0703 17.7685V25.9093C10.0703 26.6021 10.4167 27.2949 11.1096 27.7279L18.1245 31.7983C18.7307 32.1447 19.5101 32.1447 20.203 31.7983L24.9662 29.027L28.2571 27.1217L33.0203 24.3504C33.6266 24.004 34.406 24.004 35.0988 24.3504L38.8228 26.5155C39.429 26.8619 39.862 27.5547 39.862 28.3342V32.6644C39.862 33.3572 39.5156 34.05 38.8228 34.483L35.1854 36.6481C34.5792 36.9946 33.7998 36.9946 33.1069 36.6481L29.383 34.483C28.7767 34.1366 28.3437 33.4438 28.3437 32.6644V29.893L25.0528 31.7983V34.6563C25.0528 35.3491 25.3992 36.0419 26.092 36.4749L33.1069 40.5453C33.7132 40.8917 34.4926 40.8917 35.1854 40.5453L42.2003 36.4749C42.8066 36.1285 43.2396 35.4357 43.2396 34.6563V26.4289C43.2396 25.7361 42.8932 25.0432 42.2003 24.6102L35.1854 20.5398Z" fill="white"/>
</g>
</g>
<defs>
<clipPath id="clip0_3761_26887">
<rect width="53.2094" height="53.2094" fill="white" transform="translate(0.09375 0.0668945)"/>
</clipPath>
<clipPath id="clip1_3761_26887">
<rect width="33.2559" height="29.0123" fill="white" transform="translate(10.0703 11.7065)"/>
</clipPath>
</defs>
</svg>
