<svg width="42" height="42" viewBox="0 0 42 42" fill="none" xmlns="http://www.w3.org/2000/svg">
<g clip-path="url(#clip0_3774_6406)">
<path d="M20.8346 41.6545C32.1643 41.6545 41.3489 32.47 41.3489 21.1403C41.3489 9.81053 32.1643 0.625977 20.8346 0.625977C9.50487 0.625977 0.320312 9.81053 0.320312 21.1403C0.320312 32.47 9.50487 41.6545 20.8346 41.6545Z" fill="#202124"/>
<g clip-path="url(#clip1_3774_6406)">
<path d="M28.5602 9.62803L23.2096 17.5685C22.8396 18.1092 23.5511 18.7638 24.0634 18.3085L29.3286 13.7263C29.4709 13.6125 29.6701 13.6979 29.6701 13.8971V28.2127C29.6701 28.4119 29.414 28.4973 29.3001 28.355L13.3623 9.2865C12.85 8.66037 12.11 8.31885 11.2847 8.31885H10.7155C9.23552 8.31885 8.01172 9.54265 8.01172 11.051V31.201C8.01172 32.7094 9.23552 33.9332 10.7439 33.9332C11.6831 33.9332 12.5654 33.4494 13.0777 32.6241L18.4282 24.6836C18.7982 24.1429 18.0867 23.4883 17.5744 23.9436L12.3092 28.4973C12.1669 28.6111 11.9677 28.5258 11.9677 28.3265V14.0394C11.9677 13.8402 12.2239 13.7548 12.3377 13.8971L28.2756 32.9656C28.7878 33.5917 29.5563 33.9332 30.3532 33.9332H30.9224C32.4308 33.9332 33.6546 32.7094 33.6546 31.201V11.051C33.6546 9.54265 32.4308 8.31885 30.9224 8.31885C29.9547 8.31885 29.0724 8.80268 28.5602 9.62803Z" fill="white"/>
</g>
</g>
<defs>
<clipPath id="clip0_3774_6406">
<rect width="41.0286" height="41.0286" fill="white" transform="translate(0.320312 0.625977)"/>
</clipPath>
<clipPath id="clip1_3774_6406">
<rect width="25.6429" height="25.6144" fill="white" transform="translate(8.01172 8.31885)"/>
</clipPath>
</defs>
</svg>
