<svg width="147" height="121" viewBox="0 0 147 121" fill="none" xmlns="http://www.w3.org/2000/svg">
<path d="M118.949 92.931L123.304 92.5806L125.062 113.58L146.341 110.324L146.998 114.555L121.097 118.492L118.949 92.9182V92.931Z" fill="#3DB75A"/>
<path d="M21.0709 120.184C7.48582 106.887 0 89.201 0 70.3869C0 51.5729 7.48582 33.8993 21.0709 20.59C49.1199 -6.86333 94.7638 -6.86333 122.813 20.59C149.488 46.699 150.966 88.9079 126.152 116.68L122.5 113.558C145.628 87.6655 144.255 48.3045 119.369 23.9603C93.2016 -1.65173 50.6431 -1.63898 24.4884 23.9603C11.8146 36.365 4.83649 52.8599 4.83649 70.3997C4.83649 87.9395 11.8146 104.434 24.4884 116.839L21.0579 120.197L21.0709 120.184Z" fill="#3DB75A"/>
<path opacity="0.6" d="M116.473 72.2203C116.473 72.2203 103.448 58.5479 70.8357 58.5479C40.8143 58.5479 27.3789 72.2203 27.3789 72.2203C27.3789 72.2203 40.8143 85.8928 70.8357 85.8928C103.448 85.8928 116.473 72.2203 116.473 72.2203Z" fill="#51D642"/>
<path opacity="0.5" d="M116.473 89.4821C116.473 89.4821 103.448 75.8096 70.8357 75.8096C40.8143 75.8096 27.3789 89.4821 27.3789 89.4821C27.3789 89.4821 40.8143 103.155 70.8357 103.155C103.448 103.155 116.473 89.4821 116.473 89.4821Z" fill="#54DB45"/>
<path d="M116.473 37.6256C116.473 37.6256 103.448 23.9531 70.8357 23.9531C40.8143 23.9531 27.3789 37.6256 27.3789 37.6256C27.3789 37.6256 40.8143 51.2981 70.8357 51.2981C103.448 51.2981 116.473 37.6256 116.473 37.6256Z" fill="#3DB75A"/>
<path opacity="0.8" d="M116.473 54.8825C116.473 54.8825 103.448 41.21 70.8357 41.21C40.8143 41.21 27.3789 54.8825 27.3789 54.8825C27.3789 54.8825 40.8143 68.555 70.8357 68.555C103.448 68.555 116.473 54.8825 116.473 54.8825Z" fill="#3DB75A"/>
</svg>
