<svg width="42" height="42" viewBox="0 0 42 42" fill="none" xmlns="http://www.w3.org/2000/svg">
<path d="M20.9948 41.0313C32.3245 41.0313 41.509 31.8467 41.509 20.517C41.509 9.18724 32.3245 0.00268555 20.9948 0.00268555C9.66503 0.00268555 0.480469 9.18724 0.480469 20.517C0.480469 31.8467 9.66503 41.0313 20.9948 41.0313Z" fill="#202124"/>
<path d="M13.2855 25.6365C13.4277 25.4943 13.6232 25.4114 13.8305 25.4114H32.635C32.9787 25.4114 33.1505 25.8261 32.9076 26.069L29.1929 29.7837C29.0507 29.9259 28.8552 30.0088 28.6478 30.0088H9.84332C9.4997 30.0088 9.32789 29.5941 9.57079 29.3512L13.2855 25.6365Z" fill="white"/>
<path d="M13.2855 11.7671C13.4336 11.6249 13.6291 11.542 13.8305 11.542H32.635C32.9787 11.542 33.1505 11.9567 32.9076 12.1996L29.1929 15.9143C29.0507 16.0565 28.8552 16.1394 28.6478 16.1394H9.84332C9.4997 16.1394 9.32789 15.7247 9.57079 15.4818L13.2855 11.7671Z" fill="url(#paint0_linear_3774_6385)"/>
<path d="M13.2855 11.7671C13.4336 11.6249 13.6291 11.542 13.8305 11.542H32.635C32.9787 11.542 33.1505 11.9567 32.9076 12.1996L29.1929 15.9143C29.0507 16.0565 28.8552 16.1394 28.6478 16.1394H9.84332C9.4997 16.1394 9.32789 15.7247 9.57079 15.4818L13.2855 11.7671Z" fill="white"/>
<path d="M29.1929 18.6573C29.0507 18.5151 28.8552 18.4321 28.6478 18.4321H9.84332C9.4997 18.4321 9.32789 18.8468 9.57079 19.0898L13.2855 22.8044C13.4277 22.9466 13.6232 23.0296 13.8305 23.0296H32.635C32.9787 23.0296 33.1505 22.6149 32.9076 22.3719L29.1929 18.6573Z" fill="url(#paint1_linear_3774_6385)"/>
<path d="M29.1929 18.6573C29.0507 18.5151 28.8552 18.4321 28.6478 18.4321H9.84332C9.4997 18.4321 9.32789 18.8468 9.57079 19.0898L13.2855 22.8044C13.4277 22.9466 13.6232 23.0296 13.8305 23.0296H32.635C32.9787 23.0296 33.1505 22.6149 32.9076 22.3719L29.1929 18.6573Z" fill="white"/>
<defs>
<linearGradient id="paint0_linear_3774_6385" x1="25.1481" y1="6.35201" x2="12.1339" y2="31.2795" gradientUnits="userSpaceOnUse">
<stop stop-color="#00FFA3"/>
<stop offset="1" stop-color="#DC1FFF"/>
</linearGradient>
<linearGradient id="paint1_linear_3774_6385" x1="27.9753" y1="7.82791" x2="14.9611" y2="32.7554" gradientUnits="userSpaceOnUse">
<stop stop-color="#00FFA3"/>
<stop offset="1" stop-color="#DC1FFF"/>
</linearGradient>
</defs>
</svg>
