<svg width="180" height="118" viewBox="0 0 180 118" fill="none" xmlns="http://www.w3.org/2000/svg">
<path d="M89.4489 6.79689e-05C89.4489 6.79689e-05 73.5352 14.8386 73.5352 51.9904C73.5352 86.1909 89.4489 101.497 89.4489 101.497C89.4489 101.497 105.363 86.1909 105.363 51.9904C105.363 14.8386 89.4489 6.79689e-05 89.4489 6.79689e-05Z" fill="#3DB75A" fill-opacity="0.5"/>
<path d="M13.7835 21.1626C13.7835 21.1626 7.42098 41.97 25.9969 74.1445C43.0972 103.763 64.5317 109.061 64.5317 109.061C64.5317 109.061 70.6606 87.8492 53.5603 58.2307C34.9844 26.0563 13.7835 21.1626 13.7835 21.1626Z" fill="#3DB75A" fill-opacity="0.15"/>
<path d="M165.448 21.1633C165.448 21.1633 144.247 26.0569 125.671 58.2314C108.571 87.8499 114.7 109.062 114.7 109.062C114.7 109.062 136.134 103.764 153.234 74.1451C171.81 41.9707 165.448 21.1633 165.448 21.1633Z" fill="#3DB75A"/>
</svg>
