<svg width="54" height="54" viewBox="0 0 54 54" fill="none" xmlns="http://www.w3.org/2000/svg">
<g clip-path="url(#clip0_3761_26888)">
<path d="M26.9992 53.2763C41.6926 53.2763 53.6039 41.365 53.6039 26.6716C53.6039 11.9782 41.6926 0.0668945 26.9992 0.0668945C12.3059 0.0668945 0.394531 11.9782 0.394531 26.6716C0.394531 41.365 12.3059 53.2763 26.9992 53.2763Z" fill="#50AF95"/>
<g clip-path="url(#clip1_3761_26888)">
<path fill-rule="evenodd" clip-rule="evenodd" d="M15.4045 13.5252L8.73445 27.5189C8.70907 27.571 8.70103 27.6297 8.7115 27.6867C8.72197 27.7436 8.75041 27.7957 8.79265 27.8354L26.8069 45.0766C26.8581 45.1257 26.9263 45.153 26.9972 45.153C27.0681 45.153 27.1362 45.1257 27.1874 45.0766L45.2017 27.8365C45.2439 27.7968 45.2724 27.7447 45.2828 27.6878C45.2933 27.6308 45.2853 27.572 45.2599 27.52L38.5898 13.5263C38.5683 13.4793 38.5336 13.4395 38.4901 13.4116C38.4465 13.3838 38.3958 13.369 38.3441 13.3692H15.6524C15.6004 13.3685 15.5494 13.3829 15.5054 13.4106C15.4614 13.4383 15.4264 13.4781 15.4045 13.5252Z" fill="white"/>
<path fill-rule="evenodd" clip-rule="evenodd" d="M29.3169 28.956C29.1876 28.9657 28.5194 29.0055 27.0289 29.0055C25.8434 29.0055 25.0017 28.97 24.7064 28.956C20.1249 28.7547 16.7053 27.9581 16.7053 27.0044C16.7053 26.0507 20.1249 25.2552 24.7064 25.0507V28.1627C25.006 28.1842 25.8639 28.2348 27.0494 28.2348C28.472 28.2348 29.1844 28.1756 29.3126 28.1637V25.0528C33.8843 25.2563 37.2964 26.0528 37.2964 27.0044C37.2964 27.956 33.8854 28.7525 29.3126 28.9549L29.3169 28.956ZM29.3169 24.731V21.9462H35.6971V17.6997H18.3262V21.9462H24.7053V24.7299C19.5203 24.9678 15.6211 25.9936 15.6211 27.2229C15.6211 28.4522 19.5203 29.477 24.7053 29.716V38.6396H29.3158V29.7127C34.489 29.4748 38.3817 28.4501 38.3817 27.2219C38.3817 25.9936 34.4922 24.9689 29.3158 24.7299L29.3169 24.731Z" fill="#50AF95"/>
</g>
</g>
<defs>
<clipPath id="clip0_3761_26888">
<rect width="53.2094" height="53.2094" fill="white" transform="translate(0.394531 0.0668945)"/>
</clipPath>
<clipPath id="clip1_3761_26888">
<rect width="36.5815" height="31.7839" fill="white" transform="translate(8.70703 13.3691)"/>
</clipPath>
</defs>
</svg>
